<?xml version="1.0" encoding="UTF-8"?>
<!-- Generator: Adobe Illustrator 24.0.1, SVG Export Plug-In . SVG Version: 6.00 Build 0)  -->
<svg xmlns="http://www.w3.org/2000/svg" xmlns:xlink="http://www.w3.org/1999/xlink" id="Livello_1" x="0px" y="0px" viewBox="0 0 675 124.3" style="enable-background:new 0 0 675 124.3;" xml:space="preserve">
<style type="text/css">
	.st0{fill:#FFFFFF;}
</style>
<title>logo-amara-svg-white</title>
<g id="Livello_2_1_">
	<g id="Livello_1-2">
		<path class="st0" d="M46.8,0L0,124.3h36.3l6.2-17.9h49l6.1,17.9H134L87.2,0H46.8z M51.2,78.4l15.8-46.8l15.7,46.8H51.2z"></path>
		<path class="st0" d="M628.2,0h-40.4L541,124.3h36.4l6.2-17.9h49l6.2,17.9H675L628.2,0z M592.2,78.4l15.8-46.8l15.7,46.8H592.2z"></path>
		<polygon class="st0" points="211.7,68.6 185.6,0 141.1,0 141.1,124.3 173.1,124.3 173.1,42.1 204.6,124.3 218.8,124.3 250.1,42.1     250.1,124.3 282.1,124.3 282.1,0 237.6,0 211.7,68.6   "></polygon>
		<path class="st0" d="M535.9,41.4c0-23.1-15.7-41.4-43.2-41.4h-62.2v124.3h32V82.5h16.4l20.9,41.7h36.7l-25.3-45.6    C522.8,74.5,535.9,63,535.9,41.4z M487.8,54.6h-25.3V27.9h25.3c8.6,0,15.5,4.6,15.5,13.2C503.2,49.9,496.3,54.6,487.8,54.6z"></path>
		<path class="st0" d="M336.1,0l-46.8,124.3h36.3l6.1-17.9h49l6.1,17.9h36.4L376.5,0H336.1z M340.5,78.4l15.8-46.8L372,78.4H340.5z"></path>
	</g>
</g>
</svg>
