<?xml version="1.0" encoding="UTF-8"?> <svg xmlns="http://www.w3.org/2000/svg" width="200" height="83.292" viewBox="0 0 200 83.292"><defs><style>.a{fill:#fff;}.b{fill:none;}</style></defs><g transform="translate(-240 -119)"><g transform="translate(245.209 119)"><path class="a" d="M148.389,114.167a1.994,1.994,0,0,1,1.486.664l.168.188a1.994,1.994,0,0,1-1.485,3.324c-4.188,0-3.9-.007-4.237-.129a9.594,9.594,0,0,1-7.785-14.366c2.756-4.712,3.056-5.212,4.432-7.6a2,2,0,0,1,1.406-.973l.2-.035a1.993,1.993,0,0,1,2.074,2.96c-1.452,2.518-1.71,2.947-4.516,7.746a5.423,5.423,0,0,0,4.7,8.115,2.108,2.108,0,0,1,.667.108Z" transform="translate(-135.242 -52.564)"></path><path class="a" d="M218.06,104.67l-2.129-3.63a2.1,2.1,0,0,0-3.809.41,1.994,1.994,0,0,0,.175,1.629l2.162,3.688,0,0a5.424,5.424,0,0,1-4.732,8.123c-4.684.082-5.15.107-7.748.112a2,2,0,0,0-1.529.717l-.135.16a1.994,1.994,0,0,0,1.52,3.29c2.765-.006,3.145-.026,7.93-.112A9.6,9.6,0,0,0,218.06,104.67Z" transform="translate(-146.481 -53.398)"></path><path class="a" d="M189.108,54.516c-1.284-2.246-1.446-2.521-3.538-6.147a9.591,9.591,0,0,0-15.841-1.121c-.267.238-.208.134-2.054,3.338-.025.042-.05.083-.075.13a2.088,2.088,0,0,0,3.6,2.1c.026-.042.05-.088.075-.13.75-1.292,1.3-2.238,1.3-2.238a5.422,5.422,0,0,1,9.385,0c2.08,3.6,2.251,3.892,3.522,6.118a2.105,2.105,0,0,0,1.455,1.025,2.078,2.078,0,0,0,2.171-3.08Z" transform="translate(-140.829 -43.582)"></path></g><g transform="translate(240 125.916)"><path class="a" d="M179.827,63.528a10.6,10.6,0,0,0-2.167,13.445c3.8,6.606,8.285,7.5,16.416,9.118,1.53.3,3.268.65,5.159,1.067a2.085,2.085,0,0,0,2.251-3.076c-3.022-5.251-1.809-8.085-.275-11.677,1.638-3.834,3.642-8.531.008-16.166a6.367,6.367,0,0,1,6.81,3.255c2.992,5.192.629,12.3-2.359,21.3-.567,1.7-1.15,3.472-1.73,5.305,0,.012-.008.021-.012.034-.008.033-.017.066-.025.1s-.021.088-.029.129-.017.088-.021.133a1.628,1.628,0,0,0-.012.4l.012.137c.009.042.013.088.021.134s.021.088.033.133a2.083,2.083,0,0,0,.083.259,2.732,2.732,0,0,0,.154.3l.055.1a2.009,2.009,0,0,0,3.641-.391l0-.008c.021-.055.041-.108.059-.163.066-.208.129-.416.2-.621l.088-.258,0,0c.483-1.505.971-2.968,1.441-4.393l.383-1.159c.017-.05.034-.1.05-.146,2.993-9.043,5.326-16.882,1.583-23.384a10.583,10.583,0,0,0-14.373-4.147,2.081,2.081,0,0,0-.809,2.867c4.114,7.147,2.634,10.615.917,14.632-1.338,3.134-2.818,6.6-1.267,11.482L194.893,82c-7.831-1.559-10.76-2.143-13.619-7.11a6.4,6.4,0,0,1,1.288-8.218c2.091-1.813,5.8-2.605,9.919.616a2.084,2.084,0,0,0,2.567-3.283C188.921,59.22,183.02,60.757,179.827,63.528Z" transform="translate(-137.155 -51.955)"></path><path class="a" d="M147.81,84.275a2.084,2.084,0,1,0-2.567-3.283c-4.122,3.221-7.826,2.428-9.918.613a6.4,6.4,0,0,1-1.288-8.217c2.859-4.967,5.789-5.551,13.619-7.111l1.219-.244c-1.552,4.882-.072,8.349,1.265,11.48,1.716,4.017,3.2,7.487-.916,14.633a2.083,2.083,0,0,0,.807,2.868,10.59,10.59,0,0,0,14.375-4.147c3.92-6.812,1.169-15.1-2.017-24.688-.411-1.237-.832-2.505-1.251-3.8-.065-.2-.13-.407-.195-.61a.059.059,0,0,1,.008-.012l-.287-.873a2.09,2.09,0,0,0-3.794-.4h0a1.183,1.183,0,0,0-.066.139c-.012.023-.023.045-.034.069s-.009.017-.012.026a.031.031,0,0,1-.008.017c-.011.026-.017.053-.026.079-.016.044-.031.088-.044.132,0,.013-.01.026-.013.039-.012.045-.025.092-.033.133a1.078,1.078,0,0,0-.021.112c0,.021,0,.042,0,.064a1.979,1.979,0,0,0-.015.27c0,.031,0,.062.007.093a2.027,2.027,0,0,0,.024.213c0,.023,0,.046.008.069s.01.037.015.055.009.035.013.052c.012.043.021.087.035.131,0,.017.012.029.017.045l0,.006c.573,1.821,1.156,3.573,1.718,5.268,2.989,9,5.348,16.1,2.36,21.295a6.373,6.373,0,0,1-6.81,3.257c3.631-7.638,1.626-12.332-.012-16.168-1.533-3.59-2.744-6.426.278-11.678A2.084,2.084,0,0,0,152,61.122c-1.892.416-3.627.762-5.157,1.066-8.134,1.621-12.615,2.514-16.417,9.119a10.6,10.6,0,0,0,2.168,13.443C135.785,87.523,141.686,89.061,147.81,84.275Z" transform="translate(-128.936 -53.257)"></path><path class="a" d="M193.851,125.77a2.083,2.083,0,0,0-2.083-2.13c-8.245,0-10.514-3.015-13.139-6.506-2.047-2.721-4.313-5.733-9.317-6.824q.423-.482.819-.935c5.258-6.008,7.226-8.256,12.956-8.256a6.4,6.4,0,0,1,6.48,5.215c.53,2.719-.63,6.325-5.479,8.291a2.084,2.084,0,0,0,1.566,3.862c7.2-2.92,8.813-8.8,8-12.95a10.6,10.6,0,0,0-10.57-8.586c-7.621,0-10.63,3.438-16.092,9.679-1.028,1.175-2.193,2.505-3.5,3.938a2.084,2.084,0,0,0,1.54,3.487c6.06,0,7.914,2.464,10.261,5.584,2.508,3.333,5.576,7.413,14.008,8.075a6.373,6.373,0,0,1-6.22,4.278c-5.991,0-10.972-5.59-17.279-12.668-1.17-1.313-2.38-2.67-3.65-4.052h0a2.09,2.09,0,0,0-3.553.439,2.1,2.1,0,0,0,.351,2.252l.606.677h.024c1.069,1.172,2.109,2.333,3.112,3.459,6.724,7.546,12.531,14.063,20.39,14.063a10.59,10.59,0,0,0,10.765-10.39Z" transform="translate(-134.066 -59.783)"></path></g><g transform="translate(254.522 127.119)"><path class="a" d="M180.729,56.49c-.026.041-.05.088-.075.129a2.089,2.089,0,0,1-3.606-2.1c.026-.045.05-.088.075-.129a2.089,2.089,0,0,1,3.606,2.1Z" transform="translate(-151.787 -53.411)"></path><path class="a" d="M209.676,107.521a2.09,2.09,0,0,0-2.755.725c-.026.041-.05.083-.075.129a2.088,2.088,0,0,0,3.6,2.1c.025-.041.05-.088.075-.129A2.093,2.093,0,0,0,209.676,107.521Z" transform="translate(-156.971 -62.782)"></path><path class="a" d="M149.6,107.521a2.09,2.09,0,0,0-2.755.725c-.025.041-.05.083-.075.129a2.089,2.089,0,0,0,3.606,2.1c.025-.041.05-.088.075-.129A2.093,2.093,0,0,0,149.6,107.521Z" transform="translate(-146.518 -62.782)"></path></g><g transform="translate(334.318 138.672)"><path class="a" d="M245.139,67.77h-.446c-1.263,0-1.571.309-1.571,1.576V88.437c0,1.263.308,1.571,1.571,1.571h.446c1.266,0,1.575-.308,1.575-1.571V69.346C246.714,68.079,246.405,67.77,245.139,67.77Z" transform="translate(-243.122 -67.462)"></path><path class="a" d="M254.9,90.375a2.225,2.225,0,1,0,0,3.146A2.252,2.252,0,0,0,254.9,90.375Z" transform="translate(-244.512 -71.283)"></path><path class="a" d="M272.043,86.625h-7.289a1.17,1.17,0,0,1-1.334-1.3V69.346c0-1.267-.308-1.576-1.571-1.576H261.4c-1.267,0-1.575.309-1.575,1.576V86.112c0,2.734,1.163,3.9,3.9,3.9h8.315c1.229,0,1.538-.308,1.538-1.537v-.309C273.581,86.929,273.272,86.625,272.043,86.625Z" transform="translate(-246.029 -67.462)"></path><path class="a" d="M282.591,90.375a2.225,2.225,0,1,0,0,3.146A2.252,2.252,0,0,0,282.591,90.375Z" transform="translate(-249.33 -71.283)"></path><path class="a" d="M296.721,67.77h-5.3c-2.737,0-3.9,1.167-3.9,3.9V88.437c0,1.263.308,1.571,1.575,1.571h.442c1.267,0,1.575-.308,1.575-1.571V72.458a1.17,1.17,0,0,1,1.334-1.3h4.275c2.909,0,3.9,1.163,3.9,3.867,0,2.734-.992,3.863-3.9,3.863h-3.084a1.694,1.694,0,0,0,0,3.388h3.084c5,0,7.494-2.429,7.494-7.252C304.214,70.371,302.026,67.77,296.721,67.77Z" transform="translate(-250.846 -67.462)"></path><path class="a" d="M307.2,90.375a2.225,2.225,0,1,0,0,3.146A2.252,2.252,0,0,0,307.2,90.375Z" transform="translate(-253.611 -71.283)"></path><path class="a" d="M332.09,88.439l-4.209-15.29a12.432,12.432,0,0,0-1.95-4.518A4.356,4.356,0,0,0,322.4,67.4a4.475,4.475,0,0,0-3.555,1.233,12.431,12.431,0,0,0-1.95,4.518l-4.209,15.29c-.308,1.2-.1,1.5,1.163,1.5h.479c1.267,0,1.609-.308,1.984-1.5l1.267-4.651.567-2.15.288-1.1,2.021-7.46c.546-2.017.854-2.463,1.946-2.463s1.371.446,1.917,2.463l2.021,7.46.854,3.25,1.267,4.651c.375,1.2.717,1.5,1.984,1.5h.479C332.19,89.943,332.4,89.635,332.09,88.439Zm-7.752-7.9h-3.9a1.635,1.635,0,0,0-1.517,1.3,2.07,2.07,0,0,0-.029.321,1.625,1.625,0,0,0,1.546,1.625h3.9a1.627,1.627,0,0,0,0-3.25Z" transform="translate(-255.204 -67.397)"></path><path class="a" d="M343.437,90.375a2.225,2.225,0,1,0,0,3.146A2.252,2.252,0,0,0,343.437,90.375Z" transform="translate(-259.917 -71.283)"></path><path class="a" d="M361.592,67.77h-.579c-1.267,0-1.642.309-1.95,1.542l-3.7,15.324c-.513,1.95-.855,2.467-1.951,2.467s-1.433-.517-1.946-2.467l-3.7-15.324c-.308-1.233-.683-1.542-1.95-1.542h-.584c-1.262,0-1.5.309-1.2,1.542l3.8,15.257a11.421,11.421,0,0,0,1.883,4.517,4.705,4.705,0,0,0,3.692,1.23,4.635,4.635,0,0,0,3.663-1.23A11.423,11.423,0,0,0,359,84.569l3.8-15.257C363.1,68.079,362.859,67.77,361.592,67.77Z" transform="translate(-260.66 -67.462)"></path><path class="a" d="M369.486,90.375a2.225,2.225,0,1,0,0,3.146A2.252,2.252,0,0,0,369.486,90.375Z" transform="translate(-264.449 -71.283)"></path></g><g transform="translate(333.807 164.781)"><path class="a" d="M243.3,103.555v2.784c0,.276-.072.347-.348.347h-.1c-.277,0-.348-.071-.348-.347v-5.956c0-.277.071-.349.348-.349h.1c.276,0,.348.072.348.349v2.424h3.132v-2.424c0-.277.071-.349.348-.349h.1c.276,0,.348.072.348.349v5.956c0,.276-.072.347-.348.347h-.1c-.277,0-.348-.071-.348-.347v-2.784Z" transform="translate(-242.502 -99.185)"></path><path class="a" d="M255.6,104.456c-.031.255-.092.316-.368.316h-3.091v.307c0,.931.46,1.3,1.6,1.3a5.186,5.186,0,0,0,1.393-.195c.245-.072.327.011.327.267v.092c0,.215-.041.287-.317.368a4.837,4.837,0,0,1-1.4.195c-1.607,0-2.364-.624-2.364-2.139v-.952a1.906,1.906,0,0,1,2.16-2.159,1.858,1.858,0,0,1,2.1,2.048A3.837,3.837,0,0,1,255.6,104.456Zm-3.459-.328h2.763v-.338c0-.829-.46-1.249-1.382-1.249s-1.381.42-1.381,1.249Z" transform="translate(-244.046 -99.502)"></path><path class="a" d="M260.437,108.586c0,.245-.061.306-.307.306h-.082c-.246,0-.307-.061-.307-.306V99.314c0-.246.061-.308.307-.308h.082c.246,0,.307.062.307.308Z" transform="translate(-245.501 -99.006)"></path><path class="a" d="M269.233,106.33c.071.257.02.338-.257.338h-.1c-.276,0-.368-.061-.439-.338l-.481-1.719h-3.06l-.471,1.719c-.071.277-.164.338-.44.338h-.112c-.276,0-.328-.081-.256-.338l1.371-4.9a3.19,3.19,0,0,1,.522-1.188,1.183,1.183,0,0,1,.921-.317,1.146,1.146,0,0,1,.911.317,2.9,2.9,0,0,1,.522,1.188Zm-4.146-2.446h2.671l-.706-2.548c-.153-.563-.287-.7-.624-.7-.358,0-.481.133-.634.7Z" transform="translate(-246.17 -99.166)"></path><path class="a" d="M273.844,106.677c0,.277-.051.327-.328.327H273.4c-.257,0-.328-.05-.328-.327v-3.05a1.557,1.557,0,0,1,1.75-1.771,3.038,3.038,0,0,1,.328.021c.255.031.307.1.307.359v.1c0,.256-.061.306-.318.265-.122-.009-.225-.02-.317-.02-.736,0-.982.348-.982,1.085Z" transform="translate(-247.822 -99.502)"></path><path class="a" d="M277.96,102.1c0-.235.061-.286.276-.316l.583-.083.113-1.054c.01-.215.072-.276.307-.276h.071c.215,0,.277.061.277.276V101.7h1.657c.257,0,.318.061.318.317v.093c0,.256-.061.317-.318.317h-1.657v2.6c0,.788.327,1.085.941,1.085a3.361,3.361,0,0,0,.911-.1c.235-.052.307.01.307.265v.093c0,.2-.061.3-.317.368a3.534,3.534,0,0,1-.89.1q-1.72,0-1.72-1.811v-2.6h-.583c-.235,0-.276-.041-.276-.277Z" transform="translate(-248.671 -99.243)"></path><path class="a" d="M289.92,104.958v-.952c0-1.434.747-2.15,2.251-2.15,1.586,0,2.232.747,2.232,2.15v.952c0,1.432-.748,2.149-2.232,2.149C290.575,107.107,289.92,106.359,289.92,104.958Zm3.715-.952c0-.983-.348-1.423-1.464-1.423-1.136,0-1.484.44-1.484,1.423v.952c0,.982.368,1.422,1.484,1.422s1.464-.44,1.464-1.422Z" transform="translate(-250.752 -99.502)"></path><path class="a" d="M297.74,101.885c0-.235.061-.286.276-.316l.583-.083v-.757c0-1.054.574-1.586,1.72-1.586a4.278,4.278,0,0,1,.778.082c.255.051.316.113.316.368v.092c0,.256-.071.317-.316.267a3.561,3.561,0,0,0-.748-.083c-.655,0-.982.266-.982.809v.808h1.617c.255,0,.317.061.317.317v.093c0,.256-.062.317-.317.317h-1.617V106.2c0,.277-.072.327-.328.327h-.112c-.276,0-.328-.05-.328-.327v-3.991h-.583c-.235,0-.276-.041-.276-.277Z" transform="translate(-252.113 -99.03)"></path><path class="a" d="M313.07,103.934l1.515,2.415c.173.257.133.338-.184.338h-.112a.583.583,0,0,1-.614-.338L312.21,104h-1.688v2.344c0,.276-.072.347-.349.347h-.1c-.277,0-.348-.071-.348-.347v-5.2c0-.767.327-1.105,1.1-1.105h1.577c1.587,0,2.159.676,2.159,1.986C314.564,103.126,314.165,103.76,313.07,103.934ZM311,100.782c-.337,0-.481.144-.481.482v1.985h1.883c1.065,0,1.361-.378,1.361-1.227,0-.871-.3-1.239-1.361-1.239Z" transform="translate(-254.198 -99.185)"></path><path class="a" d="M322.7,104.456c-.031.255-.093.316-.369.316h-3.091v.307c0,.931.461,1.3,1.6,1.3a5.18,5.18,0,0,0,1.391-.195c.246-.072.328.011.328.267v.092c0,.215-.041.287-.317.368a4.84,4.84,0,0,1-1.4.195c-1.607,0-2.364-.624-2.364-2.139v-.952a1.906,1.906,0,0,1,2.159-2.159,1.858,1.858,0,0,1,2.1,2.048A3.956,3.956,0,0,1,322.7,104.456Zm-3.46-.328h2.764v-.338c0-.829-.461-1.249-1.382-1.249s-1.382.42-1.382,1.249Z" transform="translate(-255.72 -99.502)"></path><path class="a" d="M326.456,103.975c0-1.341.726-2.119,2.282-2.119a2.75,2.75,0,0,1,.9.133c.244.083.306.154.306.389v.1c0,.255-.062.327-.306.246a2.581,2.581,0,0,0-.881-.144c-1.146,0-1.535.45-1.535,1.4v.993c0,1.033.46,1.4,1.6,1.4a2.811,2.811,0,0,0,.922-.134c.235-.081.307,0,.307.256v.1c0,.216-.072.3-.328.368a3.089,3.089,0,0,1-.952.134c-1.566,0-2.313-.676-2.313-2.119Z" transform="translate(-257.109 -99.502)"></path><path class="a" d="M334.881,105.849c.122.45.266.563.624.563.3,0,.46-.122.573-.563l.849-3.531c.051-.255.154-.338.43-.338h.093c.276,0,.337.061.266.338l-1.177,4.707c-.348,1.382-1.033,2.1-2.058,2.17-.235.031-.316-.04-.368-.286l-.021-.093c-.051-.235.01-.276.266-.306.747-.082,1.116-.553,1.413-1.545a1.051,1.051,0,0,1-.512.112c-.686,0-.931-.368-1.146-1.2l-.973-3.562c-.072-.277-.02-.338.256-.338h.083c.276,0,.368.061.439.338Z" transform="translate(-258.267 -99.523)"></path><path class="a" d="M341.278,103.975c0-1.341.726-2.119,2.282-2.119a2.746,2.746,0,0,1,.9.133c.245.083.306.154.306.389v.1c0,.255-.061.327-.306.246a2.581,2.581,0,0,0-.881-.144c-1.146,0-1.535.45-1.535,1.4v.993c0,1.033.461,1.4,1.6,1.4a2.806,2.806,0,0,0,.921-.134c.235-.081.307,0,.307.256v.1c0,.216-.072.3-.328.368a3.085,3.085,0,0,1-.952.134c-1.565,0-2.313-.676-2.313-2.119Z" transform="translate(-259.688 -99.502)"></path><path class="a" d="M348.231,99.743c0-.277.051-.327.328-.327h.112c.255,0,.327.05.327.327v5.393c0,.522.174.778.522.778h.051c.256,0,.317.021.317.266v.072c0,.256-.05.338-.286.378a.962.962,0,0,1-.185.011c-.706,0-1.187-.42-1.187-1.371Z" transform="translate(-260.897 -99.077)"></path><path class="a" d="M353.758,99.966a.485.485,0,0,1-.491.491.5.5,0,0,1-.512-.491.505.505,0,0,1,.512-.5A.5.5,0,0,1,353.758,99.966Zm-.88,1.9c0-.256.051-.328.328-.328h.112c.256,0,.328.072.328.328v4.39c0,.277-.072.327-.328.327h-.112c-.277,0-.328-.05-.328-.327Z" transform="translate(-261.684 -99.086)"></path><path class="a" d="M357.823,106.677c0,.277-.05.327-.327.327h-.112c-.256,0-.327-.05-.327-.327V103.77c0-1.279.716-1.914,2.138-1.914,1.505,0,2.129.676,2.129,1.914v2.907c0,.277-.051.327-.328.327h-.122c-.277,0-.328-.05-.328-.327V103.77c0-.819-.317-1.187-1.351-1.187s-1.371.378-1.371,1.187Z" transform="translate(-262.433 -99.502)"></path><path class="a" d="M369.369,103.658q0,1.782-2.119,1.781a4.594,4.594,0,0,0-1.085.083.3.3,0,0,0-.245.306c0,.144.082.235.256.287a5.876,5.876,0,0,0,1.075.062,3.354,3.354,0,0,1,1.75.317,1.173,1.173,0,0,1,.491,1.085,1.371,1.371,0,0,1-.5,1.218,3.148,3.148,0,0,1-1.74.348,3.224,3.224,0,0,1-1.771-.348,1.232,1.232,0,0,1-.481-1.075,1.2,1.2,0,0,1,.573-1.094.7.7,0,0,1-.42-.677c0-.449.276-.716.828-.8a1.448,1.448,0,0,1-.86-1.5v-.122c0-1.116.788-1.771,2.129-1.771a2.615,2.615,0,0,1,1.054.2l.583-.522c.174-.153.256-.153.42,0l.071.072c.164.154.164.235,0,.4l-.461.47a1.489,1.489,0,0,1,.451,1.146Zm-3.122,3.142a.858.858,0,0,0-.481.839c0,.665.378.839,1.484.839,1.065,0,1.474-.174,1.474-.87,0-.645-.378-.757-1.474-.757A7.744,7.744,0,0,1,366.248,106.8Zm2.343-3.264c0-.727-.45-1.085-1.341-1.085-.911,0-1.361.358-1.361,1.085v.122c0,.738.328,1.106,1.361,1.106s1.341-.368,1.341-1.106Z" transform="translate(-263.815 -99.411)"></path></g><line class="b" y1="3.388" transform="translate(379.841 160.588)"></line></g></svg> 