<?xml version="1.0" encoding="UTF-8"?> <svg xmlns="http://www.w3.org/2000/svg" viewBox="0 0 580 222.09"><g id="Livello_2" data-name="Livello 2"><g id="Grafica"><path d="M174,52.36c-5,14.16-22.83,26.14-34.91,26.14,8.26-7.34,16.42-18.29,16.42-45.14V.83H138.41V79.32H174Z" style="fill:#18988b"></path><rect x="178.98" y="0.82" width="17.15" height="78.49" style="fill:#18988b"></rect><path d="M301.39,59.08V.83H291c7,8.77,9.3,22.92,9.3,43.48V59c0,15.49-6.72,17.57-11.36,17.57-12.09,0-12.09-13.13-12.09-21.8V.83H259.67v55c0,8.78,0,24.59,21.69,24.59,20,0,20-14.15,20-21.38" style="fill:#18988b"></path><path d="M333.17,80.46c16.11,0,26.23-18.18,26.23-40.28C359.4,16.84,349,0,333.17,0c-15.5,0-26.24,15.91-26.24,40.18,0,22.1,10,40.28,26.24,40.28m0-79.22c5.05,0,8.37,13.84,8.37,38.94,0,24.79-3.21,38.93-8.37,38.93S324.8,65,324.8,40.18c0-25.1,3.2-38.94,8.37-38.94" style="fill:#18988b"></path><path d="M389.19,47.72l9.09,31.6h16.94L404,40.91a101.44,101.44,0,0,1-19-1.56c10.53-1.65,25-9,25-22.41,0-8.78-6.4-16.11-24-16.11H365V79.32h17.14V40.38c4.85-.61,5.68,2.48,7,7.34m-7-45.86h2c6.51,0,9.19,7.13,9.19,15.08,0,9.19-3.41,18.9-11.15,22.72Z" style="fill:#18988b"></path><rect x="419.42" y="0.82" width="17.15" height="78.49" style="fill:#18988b"></rect><path d="M241.64,88.33l12.65-10.59L245,72.65c5.83-7,9.29-18.08,9.29-31.85,0-22.11-10-40.28-26.23-40.28S201.83,18.69,201.83,40.8c0,23.34,10.42,40.18,26.23,40.18a20.88,20.88,0,0,0,8.5-1.79l5.08,9.14m-13.58-8.59c-5.06,0-8.37-13.85-8.37-38.94,0-24.8,3.21-38.94,8.37-38.94S236.43,16,236.43,40.8A160.24,160.24,0,0,1,234.7,67c-2.36-1.29-4.56-2.51-6.29-3.47-.12.12-.24.25-.35.38,1.41,2.55,3.28,5.9,5.17,9.31-1.36,4.27-3.1,6.53-5.17,6.53" style="fill:#18988b"></path><path d="M54.78,118c-7-6.13-14.88-10.39-24.18-10.94-9.83-.57-19.72-.27-29.58-.32a4.55,4.55,0,0,0-1,.18V221.82c10.09,0,20.06.58,29.93-.13,18.81-1.35,31.31-11.69,37.6-29.16,5.22-14.49,6-29.52,3.18-44.66C68.58,136.25,63.85,126,54.78,118m-9.93,68.75a82,82,0,0,1-3.54,20,31.15,31.15,0,0,1-3.65,7.52c-2.88,4.33-7.07,6.25-12.46,5.6V108.72c5.36-.67,9.45,1.64,12.41,6.75,3.61,6.27,5.28,13.13,6.28,20.17,2.41,17,2.18,34,1,51.08" style="fill:#18988b"></path><path d="M80.77,221.92h56V184.36a8.05,8.05,0,0,0-1.1,2.11c-3.43,8.45-6.69,17-12.32,24.35-2.4,3.14-4.91,6.15-8.41,8.16a14.64,14.64,0,0,1-8.84,1.94v-58c4.34.17,8.18,1.44,11.1,4.33a106.2,106.2,0,0,1,7.42,8.83V147.25c-4,8.05-9.3,13.67-18.52,14.3V107.27c2.36.7,4.77.83,6.36,2,3.56,2.69,7.37,5.45,9.89,9,4.86,6.85,8.9,14.27,13.27,21.46.35.58.62,1.18,1.16,2.19V106.8h-56Z" style="fill:#18988b"></path><path d="M284.33,221.94h55.94V184.4a6.31,6.31,0,0,0-1,1.88c-3.46,8.59-6.77,17.26-12.52,24.7-2.37,3.1-4.86,6-8.29,8a14.36,14.36,0,0,1-8.87,1.9v-58c9.35.63,14.6,6.34,18.61,14.39V147.19c-4.09,8.08-9.34,13.78-18.65,14.35V107.27c2.38.71,4.84.83,6.49,2a56.16,56.16,0,0,1,9.8,8.85c5.49,6.6,9.68,14.12,13.43,21.84.26.53.57,1,1.1,2V106.84h-56Z" style="fill:#18988b"></path><path d="M488.55,139.78A138.67,138.67,0,0,1,491,174.41a9.43,9.43,0,0,1-1.42-1.87q-19.68-32.06-39.32-64.14a3,3,0,0,0-3-1.76c-5.7.11-11.41,0-17.12.06a18.49,18.49,0,0,0-1.86.18V222h20.74c-15.52-31.12-20.69-64-19-98.55.61,1,1,1.59,1.42,2.23q29.13,47.4,58.23,94.81c.72,1.18,1.39,2.12,3,1.41v-115H477.23c5.74,10.5,9,21.56,11.32,32.93" style="fill:#18988b"></path><path d="M346.46,148.41a5.47,5.47,0,0,0,.81-1.86c2.75-9.74,5.58-19.46,10.61-28.31a40.16,40.16,0,0,1,5.9-7.62,8.9,8.9,0,0,1,7.62-2.75v114h25.33V107.81c.76,0,1.26,0,1.74,0a8.78,8.78,0,0,1,1.24.25c5,1.27,8,4.9,10.19,9.16A105.59,105.59,0,0,1,415.36,130c2.15,6,3.92,12.22,5.94,18.63V106.82H346.46Z" style="fill:#18988b"></path><path d="M579.55,220q-14.87-55.78-29.7-111.58c-.35-1.33-.89-1.8-2.28-1.78-5.28.07-10.57.11-15.85,0-1.88,0-2.62.49-3.1,2.37q-12.07,46.52-24.3,93c-1.73,6.62-3.45,13.25-5.2,20h20.49c-1.1-2.86-2.25-5.55-3.17-8.33-4.5-13.61-4.29-27.48-2.12-41.45.23-1.5,1.13-1.48,2.25-1.47,7.62,0,15.22,0,22.83,0,1.51,0,2.18.37,2.58,1.95,2.69,10.52,5.5,21,8.28,31.53q2.36,8.93,4.72,17.8h25c-.17-.74-.29-1.35-.45-1.95m-64.44-51.36c4.23-16.27,8.42-32.41,12.62-48.55l.42,0,12.68,48.52Z" style="fill:#18988b"></path><path d="M238.36,208.83c-10.15,7.86-24,12.78-29.93,11.68,0,0,0-.14,0-.18.45-.44.9-.88,1.36-1.31a63,63,0,0,0,17.64-28.75,122.6,122.6,0,0,0,4.55-33.9c.12-15.81,0-31.64,0-47.44,0-.68-.06-1.35-.1-2.12H206.83V221.93h52.26V183.77c-4.57,10.33-12,18.25-20.73,25.06" style="fill:#18988b"></path><path d="M179.12,208.83c-10.34,8-24.21,12.81-30.24,11.62.61-.51,1.1-.88,1.56-1.31A61.57,61.57,0,0,0,167,194.06c4.39-12.39,5.69-25.31,5.8-38.35.12-15.54,0-31.07,0-46.6,0-.74-.07-1.49-.11-2.29H147.65V221.9h52.19V183.51c-8.25,14.2-11.73,18.4-20.72,25.32" style="fill:#18988b"></path><path d="M258.72,146.26l.75,0c3.74-13.08,7.47-26.16,11.26-39.43H247.36c3.84,13.35,7.6,26.41,11.36,39.46" style="fill:#18988b"></path></g></g></svg> 