<?xml version="1.0" encoding="UTF-8"?> <svg xmlns="http://www.w3.org/2000/svg" viewBox="0 0 354.19 445.26"><title>logo-sangiorgio-white</title><g id="Livello_2" data-name="Livello 2"><g id="Livello_1-2" data-name="Livello 1"><polygon points="101.8 420.33 105.88 428.78 114.91 429.85 108.13 436.35 109.9 445.26 101.63 440.83 93.7 445.26 95.36 436.03 88.69 429.85 97.99 428.58 101.8 420.33" style="fill:#fff;fill-rule:evenodd"></polygon><polygon points="152.01 420.33 156.09 428.78 165.12 429.85 158.34 436.35 160.11 445.26 151.84 440.83 143.9 445.26 145.57 436.03 138.9 429.85 148.2 428.58 152.01 420.33" style="fill:#fff;fill-rule:evenodd"></polygon><polygon points="202.22 420.33 206.3 428.78 215.33 429.85 208.55 436.35 210.32 445.26 202.05 440.83 194.12 445.26 195.78 436.03 189.11 429.85 198.41 428.58 202.22 420.33" style="fill:#fff;fill-rule:evenodd"></polygon><polygon points="252.43 420.33 256.51 428.78 265.54 429.85 258.76 436.35 260.53 445.26 252.26 440.83 244.33 445.26 245.99 436.03 239.31 429.85 248.62 428.58 252.43 420.33" style="fill:#fff;fill-rule:evenodd"></polygon><path d="M176.31,304.26s-21.62-17.12-61.81-38.75S59.29,224,59.29,175,54,25.28,54,25.28s13.56,1.32,50.36-3.09S176.31,0,176.31,0Z" style="fill:#aea199"></path><path d="M176.33,304.26s21.62-17.12,61.81-38.75S293.35,224,293.35,175s5.32-149.7,5.32-149.7-13.56,1.32-50.36-3.09S176.33,0,176.33,0Z" style="fill:#796a60"></path><path d="M113.45,159.45c0-2.5.62-6.17-2.56-7a7,7,0,0,0-8.64,4.76c-.3,1,1.24,1.59,1.55.57a5.32,5.32,0,0,1,6.69-3.71c2,.62,1.34,3.57,1.32,5.2,0,1,1.62,1.21,1.64.15" style="fill:#fff"></path><path d="M102.4,157.19a9,9,0,0,1-2.74,2.56c-.84.43-1.72.71-2.53,1.22s-.19,2.06.71,1.49,2.26-1,3.29-1.64a12.86,12.86,0,0,0,2.62-2.69c.67-.82-.68-1.76-1.35-.94" style="fill:#fff"></path><path d="M96.72,161.07c-1,1-2.45,1.5-3.53,2.46a4.32,4.32,0,0,0-1.35,3.63c0,1.05,1.68,1.21,1.64.16a3.05,3.05,0,0,1,1.68-3.16,14.45,14.45,0,0,0,2.63-1.84c.76-.73-.3-2-1.07-1.25" style="fill:#fff"></path><path d="M91.7,167.3c-.35,3,1.09,6.13-2,8.06-.92.57-2.27,1.23-1.74,2.51.4,1,1.89.27,1.49-.71.39.93,3.32-2.52,3.47-2.83,1.1-2.24.18-4.51.45-6.88.13-1-1.51-1.2-1.64-.15" style="fill:#fff"></path><path d="M87.79,177.87c.59,1.51,2.2,1.28,3.51,1.62a3.92,3.92,0,0,1,2.91,2.9c.38,1.26,1.05,2.39,1.43,3.65.3,1,1.92.73,1.62-.29-.38-1.26-1-2.38-1.42-3.64a6.15,6.15,0,0,0-1.4-2.76,6.07,6.07,0,0,0-2.57-1.41c-.66-.19-2.31-.07-2.59-.78-.38-1-1.86-.28-1.49.71" style="fill:#fff"></path><path d="M95.82,186.5c2.1,2.89,3.29,6.18,6,8.65.77.71,2-.34,1.25-1.06-2.62-2.44-3.86-5.79-6-8.66-.62-.85-1.87.21-1.25,1.07" style="fill:#fff"></path><path d="M101.84,195.22c1.5,2.26,4.06,3.15,6.23,4.6.89.59,1.83-.76,1-1.35-2-1.37-4.51-2.19-5.93-4.32-.59-.88-1.84.19-1.25,1.07" style="fill:#fff"></path><path d="M108.14,200a11.61,11.61,0,0,0,2.75,1.54,28.51,28.51,0,0,1,3.67,1.17c.93.5,1.88-.85,1-1.35-2.12-1.14-4.4-1.25-6.42-2.71a.83.83,0,0,0-1,1.35" style="fill:#fff"></path><path d="M114.5,202.73c1.92,1.11,4,1.16,6.18,1.27,1.64.09,3.7.27,5-1,.75-.74-.31-2-1.06-1.25-1,1-2.87.64-4.16.57-1.71-.1-3.45-.08-5-1-.91-.53-1.86.82-.94,1.35" style="fill:#fff"></path><path d="M95.54,173.57a24,24,0,0,0,8.22,17.55c.44.39,1-.37.52-.75a22.94,22.94,0,0,1-7.83-16.71c0-.58-.92-.68-.91-.09" style="fill:#fff"></path><path d="M103.85,191c6.17,4.62,13.71,6.2,21.31,6.3.58,0,.67-.9.08-.91-7.46-.1-14.8-1.59-20.87-6.14-.47-.35-1,.39-.52.75" style="fill:#fff"></path><path d="M125.19,197.41c2.68-.42,5.34.2,8-.09a45.58,45.58,0,0,0,8-1.26c.56-.17.41-1.07-.15-.9a44.78,44.78,0,0,1-8,1.26c-2.68.28-5.34-.33-8,.09a.46.46,0,0,0,.16.9" style="fill:#fff"></path><path d="M131.13,206.55a19.79,19.79,0,0,0-8.57-1.57c-.92,0-1.07,1.47-.13,1.45a18.84,18.84,0,0,1,8.19,1.49c.87.39,1.37-1,.51-1.37" style="fill:#fff"></path><path d="M122.46,205.07a15.4,15.4,0,0,0-3.84.27c-.69.17-.5,1.25.19,1.08a14.47,14.47,0,0,1,3.54-.26c.71,0,.81-1.09.11-1.09" style="fill:#fff"></path><path d="M118.6,205.15a5.12,5.12,0,0,0-2.82.34.74.74,0,0,0,.63,1.33,3.6,3.6,0,0,1,2-.21.73.73,0,0,0,.14-1.46" style="fill:#fff"></path><path d="M116.33,205.61a5.41,5.41,0,0,0-4.47,2.85c-.35.6.55,1.24.9.62a4.4,4.4,0,0,1,3.47-2.38c.7,0,.81-1.11.1-1.09" style="fill:#fff"></path><path d="M111.91,207.93c-2.69,1.31-.92,4.83-.41,6.92.23.91,1.67.66,1.44-.26-.3-1.2-2-4.58-.4-5.34a.73.73,0,0,0-.63-1.32" style="fill:#fff"></path><path d="M111.49,214.83c.07,1.83,1.14,2.95,2.24,4.33.6.73,1.71-.21,1.12-.95-.77-1-1.85-1.92-1.9-3.24,0-.93-1.49-1.08-1.46-.14" style="fill:#fff"></path><path d="M113.74,219.34c1,1.12,2,2.29,3.06,3.33.67.65,1.8-.29,1.12-.94-1.09-1-2-2.22-3.07-3.34-.63-.7-1.75.25-1.11,1" style="fill:#fff"></path><path d="M116.4,222.44c4.46,3.4,8.93,7.76,14.77,8.33a.73.73,0,0,0,.14-1.46c-5.54-.54-9.85-4.85-14.07-8.07-.75-.57-1.59.63-.84,1.2" style="fill:#fff"></path><path d="M104,237.92a15,15,0,0,1-2.12-.88,3.79,3.79,0,0,1,1.69-4,10.3,10.3,0,0,1,5.45-3.18c3.33-.52,6.77,1,10,1.73.92.21,1-1.25.14-1.46-6.33-1.41-11.33-3.26-16.52,1.8-3.3,3.22-3.7,5.75.87,7.37a.73.73,0,0,0,.51-1.37" style="fill:#fff"></path><path d="M108.76,240.21c0-.82-.67-3.4-.52-3.93.61-2.13,3.38-2.64,5-2.9a26.71,26.71,0,0,1,3.36,0c5.19-.1,10.33-.83,15.49-1.34,1-.1.72-1.63-.27-1.54-3.88.39-7.75.92-11.64,1.17-3.27.21-6.82-.3-10.07.11-5.87.72-3,4.09-2.91,8.25,0,1,1.57,1.15,1.55.15" style="fill:#fff"></path><path d="M113.71,239.1c3.75-.27,7.47.4,11.21.08a39.24,39.24,0,0,0,9-2c1-.32.27-1.73-.67-1.41a34,34,0,0,1-11.17,2c-2.91,0-5.74-.37-8.64-.16-1,.08-.73,1.62.27,1.54" style="fill:#fff"></path><path d="M200.51,200.17c-6.12-6.18-14.79-9.57-23.13-11.38-1-.22-1.18,1.42-.16,1.65,7.85,1.69,16.26,5,22,10.8.74.74,2-.32,1.26-1.07" style="fill:#fff"></path><path d="M176.84,188.8a24.41,24.41,0,0,0-4.06-.68c-1.06,0-1.22,1.6-.16,1.64a25.29,25.29,0,0,1,4.06.67c1,.23,1.18-1.42.16-1.63" style="fill:#fff"></path><path d="M172.51,187.85a71.14,71.14,0,0,0-7.3-.27c-1.06,0-1.22,1.64-.16,1.64a71.14,71.14,0,0,1,7.3.27.82.82,0,0,0,.16-1.64" style="fill:#fff"></path><path d="M165.21,187.58c-3.85,0-8.3,0-11.66,2.1-.88.56-.18,2.06.71,1.49,3.11-2,7.23-1.94,10.79-1.95,1,0,1.22-1.64.16-1.64" style="fill:#fff"></path><path d="M153.22,189.62A18.63,18.63,0,0,0,145,194c-.79.71.28,2,1.07,1.25a17.13,17.13,0,0,1,7.45-4c1-.24.75-1.86-.29-1.62" style="fill:#fff"></path><path d="M144.77,194c-2.46,1.49-5.11,3.25-6.24,6-.4,1,1.15,1.55,1.55.57.94-2.3,3.35-3.84,5.39-5.08.9-.55.2-2-.7-1.49" style="fill:#fff"></path><path d="M138.5,199.53c-3.14,2.92-4.36,7.38-4.88,11.51-.13,1.05,1.51,1.2,1.64.15.47-3.67,1.49-7.8,4.31-10.4.78-.72-.29-2-1.07-1.26" style="fill:#fff"></path><path d="M133.48,211.31c-.29,3.11-.55,6.07.49,9.08.34,1,1.82.29,1.48-.71-.92-2.68-.58-5.45-.33-8.22a.82.82,0,0,0-1.64-.15" style="fill:#fff"></path><path d="M133.9,220.45c.26,1.91,1.32,3.48,2.1,5.21a.82.82,0,0,0,1.48-.7c-.71-1.59-1.72-3-2-4.8-.14-1-1.77-.76-1.62.29" style="fill:#fff"></path><path d="M136.13,225.93c4.57,9.1,17.28,12.79,26,7.43.9-.56.2-2.05-.71-1.49-7.9,4.88-19.58,1.71-23.77-6.64-.48-.95-2-.25-1.49.7" style="fill:#fff"></path><path d="M134.08,220.41c3.16,6.47,9.33,10.91,16.67,10.72.7,0,.81-1.11.1-1.09-7,.18-12.77-3.95-15.78-10.11a.55.55,0,0,0-1,.48" style="fill:#fff"></path><path d="M150.76,231c5.42-.57,10.24-1.46,14.09-5.61a15.94,15.94,0,0,0,4.33-13.55c-.08-.7-1.17-.51-1.08.19a15.11,15.11,0,0,1-4.81,13.41c-3.59,3.4-8,4-12.72,4.48-.71.07-.51,1.15.19,1.08" style="fill:#fff"></path><path d="M160.44,215.75c4.83-6.45,12.65-6.94,20.06-7.48.71-.05.51-1.13-.19-1.08-7.79.57-15.74,1.21-20.77,7.93-.42.57.48,1.2.9.63" style="fill:#fff"></path><path d="M180.36,208.55c5,.27,9.85.74,14.34,3.28.61.35,1.24-.55.63-.9-4.67-2.64-9.59-3.2-14.87-3.48-.71,0-.81,1.06-.1,1.1" style="fill:#fff"></path><path d="M178.73,211c2.21.34,5.59,0,7.19,1.74,2,2.23.58,6.58,0,9.16-.15.69.94.78,1.09.1.63-2.91,2-7.42-.23-10-1.82-2.09-5.51-1.71-8-2.08-.7-.11-.8,1-.11,1.09" style="fill:#fff"></path><path d="M176.48,209.17c-.14,8.5-3.18,16.53-11,20.64-.63.33-.16,1.33.47,1,8.19-4.29,11.51-12.63,11.67-21.54,0-.7-1.08-.81-1.1-.1" style="fill:#fff"></path><path d="M161.45,239.16c2.53-5.12,9-4.07,13-7.36,3.24-2.65,3.79-6.54,3.83-10.5,0-.7-1.09-.81-1.09-.1-.07,6.53-2.45,10.38-8.85,12.22-3.46,1-6.2,1.93-7.89,5.35-.31.64.73,1,1,.39" style="fill:#fff"></path><path d="M183.11,226.73a26.9,26.9,0,0,1-4.77,6.21,17.28,17.28,0,0,0-4,4.79c-.46,1,1.09,1.52,1.55.57,1.05-2.15,3-3.49,4.59-5.22a29.93,29.93,0,0,0,4-5.41c.52-.91-.82-1.86-1.35-.94" style="fill:#fff"></path><path d="M176.68,240.06c3,.65,7.17,1.06,9.94-.68a5.12,5.12,0,0,0,2.21-3.39c.65-2.23.93-3.72,3.06-5.07.84-.54,1.65-1,2.44-1.6s-.24-1.92-1.07-1.26c-3,2.36-5,3-5.9,6.91-1.12,4.78-6.6,4.29-10.53,3.45-1-.23-1.17,1.42-.15,1.64" style="fill:#fff"></path><path d="M185.27,226.34c7.46-6.81,14.44-14.08,17.68-23.86.33-1-1.21-1.58-1.55-.58-3.15,9.54-9.93,16.55-17.2,23.19-.78.71.28,2,1.07,1.25" style="fill:#fff"></path><path d="M196.32,226.41c2.05-5.27,6-8.51,10.49-11.68,2.57-1.83,5.91-4.13,6.06-7.6,0-1-1.6-1.21-1.64-.15-.18,4.11-6.07,6.69-8.89,9a23.46,23.46,0,0,0-7.56,9.87.82.82,0,0,0,1.54.58" style="fill:#fff"></path><path d="M210,212.82c4,4.74,7.77,17.19,1.83,21.67-.57.43.14,1.26.7.84,6.54-4.93,2.74-18-1.69-23.22a.55.55,0,0,0-.84.71" style="fill:#fff"></path><path d="M203.38,218.9c2.15,2.42,4.23,5.14,4.73,8.43.65,4.33-2.59,11-7.78,7-.56-.43-1.19.47-.63.9,3.58,2.77,7.39,1.13,9-3,2-5.2-1.13-10.3-4.48-14.06-.47-.53-1.31.17-.84.7" style="fill:#fff"></path><path d="M212,160.56c-1.7,3-4.58,5-6.49,7.84s-3.16,6.53-4.57,9.81c-.46,1.09,1.25,1.71,1.72.64,1.48-3.44,2.67-7.22,5-10.22,1.88-2.47,4.34-4.29,5.89-7,.58-1-.92-2.07-1.5-1.05" style="fill:#fff"></path><path d="M200.72,178.71c-.43,3.15.17,6,.65,9.16.5,3.34.42,6.76,1.39,10l1.73-.55q-.13-.28-.27-.54a.91.91,0,0,0-1.65.78c.09.18.18.36.26.54.45.88,2,.48,1.73-.55-.86-2.88-.82-5.83-1.21-8.79-.44-3.33-1.28-6.49-.8-9.89.16-1.17-1.66-1.34-1.83-.18" style="fill:#fff"></path><path d="M246.12,203.68c.82,3.54,1,7.17,1.89,10.69s2.09,6.88,2.84,10.4c.22,1,1.84.76,1.62-.28-.75-3.53-2-6.91-2.84-10.41s-1.07-7.15-1.89-10.68c-.24-1-1.86-.75-1.62.28" style="fill:#fff"></path><path d="M250.44,226.32a17.59,17.59,0,0,0-2.68,6c-.35,1.56.19,4.89-1.22,5.93-1.24.92-2.95.09-4.26,0a32.74,32.74,0,0,0-3.28.29c-4.33.19-1-3,.22-4.54.65-.84-.7-1.78-1.35-.94-1.05,1.35-3.79,3.61-2.94,5.64,1.08,2.57,5.44,1.16,7.39,1.3,2.27.17,5.41.76,6.43-2a11.43,11.43,0,0,0,.31-3.25,15.16,15.16,0,0,1,2.73-7.53.83.83,0,0,0-1.35-1" style="fill:#fff"></path><path d="M241,232.43c5.06-4.43,4.2-11,2.35-17a26.41,26.41,0,0,0-4.27-8.47c-1.63-1.95-4.23-3-6.25-4.48-3.85-2.79-6.34-5.32-8.38-9.68a.83.83,0,0,0-1.49.71c3.07,6.57,7.21,8.23,12.58,12.73,5.93,5,11.25,18.95,4.4,24.95-.8.7.26,2,1.06,1.26" style="fill:#fff"></path><path d="M230.39,223.86c-6.07-10.28,4.21-19.48,12.16-24.77.59-.39-.13-1.22-.71-.83-8.39,5.58-18.78,15.33-12.44,26.07.35.6,1.35.14,1-.47" style="fill:#fff"></path><path d="M231.8,220.9c-4.41-5-4.72-13.52.63-18.05,3.78-3.2,9.15-3.89,13.78-5.12.68-.18.5-1.26-.19-1.08-5.94,1.58-13.38,2.54-16.85,8.34A14.47,14.47,0,0,0,231,221.61c.47.53,1.31-.18.84-.71" style="fill:#fff"></path><path d="M233.54,213.18c-.32-3.87,2.7-6.69,5-9.38,2.84-3.28,6.23-5.3,9.94-7.47.6-.35.14-1.35-.48-1-4.22,2.47-7.72,4.77-10.93,8.51-2.48,2.9-5,5.47-4.65,9.52.06.71,1.14.51,1.08-.19" style="fill:#fff"></path><path d="M248.54,196.33c7.19-5.5,14.51-12.42,14.89-22.05,0-1.06-1.6-1.21-1.64-.16-.36,9.2-7.47,15.72-14.31,20.95-.84.64.22,1.9,1.06,1.26" style="fill:#fff"></path><path d="M263.43,174.41c-.1-6.21-1.36-12.65-5.87-17.24-.73-.75-2,.31-1.25,1.07,4.19,4.27,5.39,10.23,5.48,16,0,1.05,1.66,1.21,1.64.15" style="fill:#fff"></path><path d="M257.83,157.72c-7.42-7.21-18.92-10.37-29.21-10.17-1.05,0-1.21,1.67-.16,1.65,9.73-.2,21.1,2.78,28.11,9.58.76.73,2-.32,1.26-1.06" style="fill:#fff"></path><path d="M246.22,197.82c9.65-3.14,17.75-8.93,17.87-20,.09-8.62-6.32-19.2-13.87-23.27-.62-.34-1.26.56-.63.89,6.4,3.46,12.57,13,13.3,20,1.22,11.7-7.2,18.11-17.14,21.34-.67.21-.2,1.2.47,1" style="fill:#fff"></path><path d="M250.76,155.09c-2.31-1.53-4.57-3.48-7.29-4.25-2.53-.72-5.38-.46-8-.58-.71,0-.81,1.06-.11,1.1a48.77,48.77,0,0,1,7.05.38c2.93.58,5.28,2.64,7.7,4.25a.55.55,0,0,0,.63-.9" style="fill:#fff"></path><path d="M244.86,155.05c7,4.11,10.56,12.81,10.07,20.82-.57,9.23-6.48,16.48-12.82,22.66-.5.48.21,1.33.71.83,7.28-7.08,13.79-15.48,13.17-26.19-.44-7.66-3.76-15.08-10.5-19-.61-.36-1.24.54-.63.9" style="fill:#fff"></path><path d="M239.12,187.57c-1.23,3.08-2.13,6.77,0,9.65a11.71,11.71,0,0,0,8.37,4.44c1.05.05,1.21-1.59.15-1.64a10.12,10.12,0,0,1-6.84-3.36c-2.17-2.48-1.29-5.74-.17-8.52.4-1-1.15-1.55-1.55-.57" style="fill:#fff"></path><path d="M237.11,162c8.44,8.85-2.41,20.38-9.35,25a61.68,61.68,0,0,0-16.39,15.9.83.83,0,0,0,1.35.95c5.14-7.09,10.67-11.88,17.87-16.7,3.15-2.12,6.15-4.16,8-7.56,3-5.35,4.26-13.92-.27-18.66-.73-.76-2,.3-1.25,1.07" style="fill:#fff"></path><path d="M213.68,148.92c9.52-.8,19.32,2.89,25.1,10.74a22.44,22.44,0,0,1,4.37,14.23c-.24,4.65-2.72,7.75-4.16,11.93a.82.82,0,0,0,1.54.57c2-5.86,4.6-8,4.24-14.52A24.33,24.33,0,0,0,240,158.59c-6.15-8.32-16.54-12.14-26.64-11.29-1.06.09-.76,1.71.29,1.62" style="fill:#fff"></path><path d="M176.26,144.72c4.92,7.4.94,17.47,7.58,24.2.74.75,2-.31,1.25-1.06-6.47-6.57-2.67-16.83-7.57-24.21-.58-.88-1.84.2-1.26,1.07" style="fill:#fff"></path><path d="M208.39,131.94c-1.43,12.07-22.53,8.54-30.88,8.45-1,0-1.21,1.63-.15,1.64,9.24.1,31,3.68,32.66-9.93a.82.82,0,0,0-1.63-.16" style="fill:#fff"></path><path d="M229.31,97.32c4.61,2.49,10.45,5.17,13.45,9.66,6.24,9.31,6.44,23.94-2.15,31.89-9.09,8.41-30.3,8.44-39.88,1.62a.55.55,0,0,0-.62.9c8.48,6,16.59,5.26,26.82,4.44a23,23,0,0,0,16.42-8.15c5.8-6.91,6.41-17.85,3.17-26-3-7.69-9.59-11.45-16.58-15.22-.62-.34-1.25.56-.63.9" style="fill:#fff"></path><path d="M200.33,151.8c2.68-3.68,7.75-5,12.08-5.18.71,0,.51-1.12-.19-1.08-4.64.23-9.94,1.71-12.79,5.63-.42.57.48,1.2.9.63" style="fill:#fff"></path><path d="M227.13,109.46c9,14.07-7.21,25.51-17.08,32.28-.39.27.09.83.47.56,10.08-6.91,26.41-18.82,17.27-33.15-.25-.39-.92-.08-.66.31" style="fill:#fff"></path><path d="M222.6,101.13c16.84,5.62,17.61,27.11,5.84,37.91-.35.32.12.88.47.56,12.2-11.19,11.26-33.38-6-39.15-.45-.16-.71.53-.26.68" style="fill:#fff"></path><path d="M197.32,77.37c2.42,1.74,5.78,1.79,7.89,4,.41.43,1.11-.16.69-.59-2.21-2.29-5.55-2.33-8.06-4.14-.48-.34-1,.41-.52.76" style="fill:#fff"></path><path d="M196.31,79.52c-.36,2.3-.24,4.28,2.47,4.29,1.62,0,3.44-.34,5,.35,2.72,1.24.64,4.12-.6,5.69-.37.46.39,1,.75.52,1.45-1.83,3.55-5.19.7-6.81a8.71,8.71,0,0,0-4.6-.71,5.19,5.19,0,0,1-2.22,0c-1.13-.57-.72-2.21-.56-3.22.1-.58-.81-.66-.91-.08" style="fill:#fff"></path><path d="M203.27,92.1c3.74,3.35,5.67-2,5.58-5.2,0-.58-.93-.67-.91-.08.07,2.41-1,7.31-4.15,4.53-.44-.39-1,.36-.52.75" style="fill:#fff"></path><path d="M197.16,83.94c-.49,2.86.61,5.68,1.1,8.47a.82.82,0,0,0,1.62-.28c-.46-2.63-1.54-5.34-1.08-8,.19-1-1.45-1.19-1.64-.16" style="fill:#fff"></path><path d="M224.22,78.15c.05-2.22.24-4.47-2.16-5.42-.11,0-.42-.09-.5-.17-.31-.34,0,.15,0-.06a3.37,3.37,0,0,1,2.15-1.91c2.86-.59,1.68,3.41,1.7,4.84,0,1,1.66,1.21,1.64.15,0-2.15,1-4.35-1-6a3.39,3.39,0,0,0-4.61.38c-.79.74-2.37,2.46-1.37,3.61.35.41.92.46,1.39.66,1.49.63,1.12,2.39,1.09,3.73,0,1,1.62,1.21,1.64.15" style="fill:#fff"></path><path d="M226.24,78.49c1,4.27,5,10.45,2.66,14.7-1.78,3.22-6.18,5.15-9.23,6.85-.92.52-.22,2,.7,1.49,3.58-2,8.57-4.29,10.34-8.25,2.06-4.62-1.83-10.71-2.85-15.08-.24-1-1.86-.75-1.62.29" style="fill:#fff"></path><path d="M214.54,104.31a26.33,26.33,0,0,0,5.37-3c.47-.36-.12-1-.59-.7a25,25,0,0,1-5.17,2.91.46.46,0,0,0,.39.83" style="fill:#fff"></path><path d="M208.42,97.08c2.8-2.1,5.25-2.74,8.49-3.76,2.5-.8,4.43-2.7,7-3.44.56-.17.4-1.07-.16-.9-3.16.92-5.62,3-8.84,3.86a19.49,19.49,0,0,0-7.06,3.54c-.47.36.12,1.05.59.7" style="fill:#fff"></path><path d="M214.34,105.31c-.15,4-1.8,7.71-2.33,11.66s-.83,8-2.49,11.79c-.43,1,1.12,1.53,1.54.57,1.53-3.47,2-7.14,2.45-10.89.52-4.39,2.3-8.56,2.46-13,.05-1.06-1.6-1.21-1.63-.15" style="fill:#fff"></path><path d="M199.1,73a19.39,19.39,0,0,1,1.76,2.44c1,1.41,3.14-.37,2.09-1.78a17.7,17.7,0,0,0-1.76-2.43c-1.25-1.23-3.35.53-2.09,1.77" style="fill:#fff"></path><path d="M147.88,65.18c-1.37,0-4.51-1.94-5.63-.49-1,1.27.67,4.22,1.07,5.51.22.72,1.39.52,1.17-.21s-.4-1.19-.6-1.78c-.09-.29-.93-2.22-.68-2.59.47-.7,3.66.76,4.56.74s.87-1.19.11-1.18" style="fill:#fff"></path><path d="M153.18,65.41c3.62.07,9.56.16,12.88,1.43-2.91-1.11,2.68,1.91,3.26,2.08a28.57,28.57,0,0,1,7.61,3.43c2,1.17,13.79,9.3,9.18,12.3a.55.55,0,0,0-.2.56c1.09,3.73,1.58,7.94,2.73,11.48,1,3.21,2.5,4.15,2.49,7.9,0,3.11-1.29,6.08-2.36,9.1a.6.6,0,0,0,1.12.42c.94-2.69,3.74-6,3.64-9-.1-2.86-2.48-4.85-3.12-7.42s-2.34-12.2-1.07-13.78a.59.59,0,0,0,0-.72c-5.06-7.18-4.9-9.89-12.55-13.43a59,59,0,0,0-23.47-5.53c-.76,0-.88,1.17-.11,1.18" style="fill:#fff"></path><path d="M153.32,68.67c-.38-1.56-1.58-6.86-4-3.87-1.19,1.43-1,3.67-1.84,5.28-1.52,3-4.22,5.56-6.13,8.38a.92.92,0,0,0,1.5,1.05c2.06-3,5.24-5.85,6.63-9.27.43-1,.31-2.46.89-3.42.86-1.43,1,1.24,1.19,2.17.27,1.14,2.08.83,1.8-.32" style="fill:#fff"></path><path d="M141.1,78.66c-1.74,4.41-5.66,7.52-7.08,12.1-.35,1.13,1.37,1.77,1.72.64,1.41-4.55,5.34-7.69,7.08-12.1a.92.92,0,0,0-1.72-.64" style="fill:#fff"></path><path d="M133.92,90.76a11.11,11.11,0,0,0-.93,1.65c-.49,1.07,1.23,1.7,1.72.64a5.83,5.83,0,0,1,.72-1.23.92.92,0,0,0-1.51-1.06" style="fill:#fff"></path><path d="M136.67,92.64A2.08,2.08,0,0,0,135.1,96c.67,1,2.06-.22,1.4-1.19l.49-.35a.92.92,0,0,0-.32-1.81" style="fill:#fff"></path><path d="M145.12,81.66l1,.27c.79.88,2.19-.3,1.4-1.19a2.58,2.58,0,0,0-3.15-.74c-1.11.4-.32,2.06.79,1.66" style="fill:#fff"></path><path d="M132.33,97.2c.59,2.44,1.08,4.81,3.8,5.58a5,5,0,0,0,6-2.45c.61-1-.89-2.07-1.5-1-1,1.59-2.45,2.4-4.29,1.63-1.65-.7-1.79-2.49-2.16-4-.27-1.14-2.08-.83-1.81.33" style="fill:#fff"></path><path d="M144.21,97.53c2.18-1.74,3.67-3.22,6.43-4a10.54,10.54,0,0,0,4.23-1.83c2.38-2,3.12-5,3.82-7.9.24-1-1.23-1.52-1.46-.55-.91,3.69-1.87,7.23-5.89,8.5-1.61.51-3.25.7-4.71,1.64-1.26.83-2.25,2-3.44,3-.78.62.23,1.81,1,1.19" style="fill:#fff"></path><path d="M154.61,68.84c17.34,7.28,30.5,17.71,29.06,38.07C183,116,183,120.63,188,128.31c.55.84,1.74-.18,1.19-1-8.71-13.17-.1-28.06-8.3-41.58-5.59-9.24-16.15-14.3-25.77-18.34-.93-.39-1.47,1.07-.54,1.46" style="fill:#fff"></path><path d="M141.69,98.69c6.75,3,11.17,7.37,18.65,9.13,8.95,2.11,18.25,2,27.39,2,1,0,1.15-1.55.15-1.55-8,0-16.16.13-24.08-1.31-8.68-1.59-14-6.31-21.57-9.73-.92-.41-1.46,1.06-.54,1.47" style="fill:#fff"></path><path d="M154.75,92.69c-1.74,2.89-2.8,6.11-4.51,9-1.41,2.4-1.86,5-3,7.56-.41.92,1.06,1.46,1.46.54,1.23-2.83,1.84-5.47,3.41-8.18s2.34-5.48,3.88-8.06c.52-.85-.76-1.76-1.28-.89" style="fill:#fff"></path><path d="M139.25,125.52c-.21-9.61,10-14.75,18.44-11.85a.78.78,0,0,0,.54-1.47c-9.31-3.19-20.77,2.55-20.54,13.17,0,1,1.58,1.15,1.56.15" style="fill:#fff"></path><path d="M117.56,131.77c1.88-4.86,8-5,12.43-4.93,5.29.08,11.41,0,16.52,1.29,1,.25,1.51-1.21.54-1.47-6.29-1.65-14.3-1.84-20.78-1.28-4.27.36-8.51,1.56-10.18,5.85a.78.78,0,0,0,1.47.54" style="fill:#fff"></path><path d="M117.49,135.84a82.72,82.72,0,0,0,7.45,17.75c2.71,4.86,7.6,7.49,12.36,10,.88.46,1.78-.81.9-1.28-5.18-2.78-9.89-5.45-12.62-10.94-2.42-4.88-5.14-10.59-6.55-15.84-.26-1-1.8-.7-1.54.27" style="fill:#fff"></path><path d="M124.6,152.49c-2.69,3.92-.56,9.73,2.61,12.75.72.68,1.92-.32,1.19-1-2.64-2.5-4.81-7.5-2.52-10.84a.78.78,0,0,0-1.28-.89" style="fill:#fff"></path><path d="M108.81,155.12a2.9,2.9,0,0,0,.45,3.24c.67.74,1.87-.26,1.19-1a1.36,1.36,0,0,1-.17-1.69.78.78,0,0,0-1.47-.54" style="fill:#fff"></path><path d="M112.29,160.49c-1,1.69-2.78,1.44-3.4,3.42s-.27,4.55-.23,6.49a.81.81,0,0,0,.71.85,12.24,12.24,0,0,1,2.38.23c3.09,1.55.45,2.29-.5,3.14-1.88,1.67-2.75,4.13-5.53,4.62a.78.78,0,0,0,.27,1.54,6.86,6.86,0,0,0,4.23-2.62c1.26-1.43,3.65-2.77,4.5-4.43,1.91-3.76-3.17-3.63-5.21-4,.24.28.48.56.71.85,0-2-.36-4.78.69-6.45.77-1.22,1.9-1.44,2.66-2.72.51-.86-.77-1.76-1.28-.89" style="fill:#fff"></path><path d="M98.36,165.94a14.78,14.78,0,0,1,3.14-2.23c1-.46,3.21-1.18,4,0s-1.08,3.39-2,4.15.26,1.85,1,1.19c1.55-1.35,3.86-4.31,2.13-6.35-2.56-3-7.27.24-9.4,2.08-.75.66.26,1.85,1,1.19" style="fill:#fff"></path><path d="M103.12,173.6a8.21,8.21,0,0,1,2-.19c.94,0,1.39.17.79,1.07s-1.82,1.76-2.63,2.73c-.64.77.64,1.66,1.28.89,1.06-1.26,3.71-2.81,3.24-4.78s-3.51-1.54-4.94-1.26a.78.78,0,0,0,.28,1.54" style="fill:#fff"></path><path d="M100.23,176.72c5.43,6.22,8.76,10.48,17.47,8.56,7.56-1.66,14-6.43,21.83-7.68,11.51-1.83,26.05-.25,33,10.2.56.83,1.75-.18,1.19-1-6.25-9.38-17.43-11.53-28.09-11.19-15.39.49-31.92,14.21-44.22.11-.66-.75-1.85.25-1.19,1" style="fill:#fff"></path><path d="M118.24,143.26c-3.63,5.43-.9,14.12-.17,20.14.57,4.65,2.31,10.93,8.33,10.93,1,0,1.15-1.56.14-1.56-6.49,0-6.88-9.36-7.28-13.88s-2.41-10.74.26-14.74c.56-.84-.72-1.73-1.28-.89" style="fill:#fff"></path><path d="M124.75,182.62a18.67,18.67,0,0,0,3.52-8.17c.44-2.56.74-5.12,2.38-7.26.42-.42.83-.85,1.25-1.28,3.14-1.61,4.71-1.16,4.74,1.35,1,4.33.21,0-.14,2.36a10.88,10.88,0,0,0,.05,2.14c0,1.65-.28,1.89-1.61,2.68-1.5.89-2.34,1.31-2.37,3.24,0,1,1.53,1.15,1.55.15,0-2.36,2.48-1.81,3.61-3.16a3.42,3.42,0,0,0,.59-2.38c.11-2.95,2.31-5.24-.83-7.64-2.84-2.18-6.09-1-8.12,1.65a13,13,0,0,0-2.31,5.65c-.71,3.77-1.28,6.6-3.59,9.77-.59.81.69,1.71,1.28.9" style="fill:#fff"></path><path d="M132,148.09c-.55-1.68-1.74-2.88-2.52-4.43a16.09,16.09,0,0,1-1.41-5.84c-.09-1-1.62-.72-1.54.28a18.67,18.67,0,0,0,1.3,5.7c.75,1.76,2.16,3.12,2.76,5,.32,1,1.73.27,1.41-.67" style="fill:#fff"></path><path d="M124.65,137.81c8.13.39,14.93,4.09,22.27,7.16,4.68,1.95,7.73,2.38,12.2.36.91-.41.24-1.82-.68-1.41-6.71,3-13.15-1.59-19.16-4-4.82-2-9.25-3.4-14.48-3.64-1,0-1.15,1.51-.15,1.55" style="fill:#fff"></path><path d="M133.41,137.94c-1.83-.44-3.43-.28-4.61,1.32-.6.81.69,1.7,1.28.89a2.33,2.33,0,0,1,2.79-.74c1,.24,1.51-1.23.54-1.47" style="fill:#fff"></path><path d="M133.37,149.71c3.76,0,7.8-.06,10.74-2.75.73-.67-.27-1.87-1-1.19-2.6,2.39-6.24,2.39-9.57,2.39-1,0-1.16,1.55-.15,1.55" style="fill:#fff"></path><path d="M132.69,150.91c1,.6.6,1.6,1.21,2.39a2.51,2.51,0,0,0,2.14.82c1.93,0,2.62-.31,4.05,1.45a9.51,9.51,0,0,1,2.42,6.83c0,1,1.54,1.15,1.56.15a9.73,9.73,0,0,0-1.24-5.76c-.84-1.41-1.94-3.32-3.46-4.09-1.16-.59-2.38.05-3.55-.41s-.67-.61-1.09-1.47a2.81,2.81,0,0,0-1.15-1.19c-.85-.53-1.75.75-.89,1.28" style="fill:#fff"></path><path d="M145.39,145.48c1.77,6.59,7.43,12.56,13,16.2a86.75,86.75,0,0,0,9.77,5c4.21,2.05,4.82,2.67,3.1,7.07-.46,1.17-1.25,1.92-1.66,3.17a.79.79,0,0,0,.13.78c5.64,5.13,12.86-5.54,17.27-7,1-.31.28-1.72-.67-1.41-3.34,1.09-5,4-8,5.81l-5.87,2a3.58,3.58,0,0,1,1.28-4.06c.52-1.15,1.28-1.91,1.76-3.13a.79.79,0,0,0-.14-.78c-2.22-2.7-6.89-4-9.94-5.5-7.62-3.73-16.17-9.79-18.52-18.51-.26-1-1.8-.7-1.54.27" style="fill:#fff"></path><path d="M183.84,172.44c2.78.69,5.45,1.77,8.25,2.36,3,.63,6.11.4,9.18.66a.78.78,0,0,0,.15-1.56c-3-.25-6,0-9-.64-2.73-.57-5.35-1.61-8.06-2.29-1-.24-1.51,1.22-.54,1.47" style="fill:#fff"></path><path d="M175.69,162.86c-2.88-6.38-6.82-13.56-6.76-20.71.08-9.34,18.49-13,26.06-12.48a.78.78,0,0,0,.15-1.55c-5.95-.42-11.75,1.63-17.39,3.33-3.57,1.07-7.69,2.42-9.52,6-3.92,7.58,3,19.36,6.05,26.13a.78.78,0,0,0,1.41-.67" style="fill:#fff"></path><path d="M199.71,97.16c-7.56,7.21-6.3,18.26-4.36,27.6.2,1,1.74.72,1.53-.27-1.8-8.72-3.28-19.35,3.84-26.14.73-.69-.28-1.89-1-1.19" style="fill:#fff"></path><path d="M201.13,77.44c3.17-.4,7.17,0,8.77,3.2,1.7,3.44.25,7.12-.46,10.6-.13.66.91.75,1,.1.82-4,2.55-8.85-.47-12.47-2.16-2.59-6-2.85-9.07-2.45-.66.08-.48,1.11.19,1" style="fill:#fff"></path><path d="M202.22,71.7c3.18.07,6.67.69,8.94,3.12,2.64,2.84,2.91,6.92,2.49,10.57a.52.52,0,0,0,1,.1c.46-3.93.12-8.31-2.73-11.34-2.47-2.64-6.15-3.41-9.63-3.48-.67,0-.77,1-.1,1" style="fill:#fff"></path><path d="M227.87,70.57q9-11.07,17.95-22.15c.78-1,.37-2.61-.74-1.23q-9,11.07-18,22.15c-.78,1-.37,2.6.74,1.23" style="fill:#fff"></path><path d="M140.28,183.3q40.92-52.94,81.85-105.85c.75-1,.33-2.64-.75-1.24q-40.92,52.94-81.85,105.85c-.75,1-.33,2.63.75,1.24" style="fill:#fff"></path><path d="M16.61,391.59c0-1.16,0-7.91-.18-9.14-.68-.14-3-.43-3.86-.51l-.11-.57,7.11,0a23.84,23.84,0,0,1,8.13,1.05c3.22,1.33,3.54,3.54,3.54,4.44a7.79,7.79,0,0,1-2.49,5.6c-2.42,2.38-6.25,3.21-7.73,3.39l.11-.83c1.91-.32,7.19-1.66,7.19-6.86a5.29,5.29,0,0,0-3-4.73,12,12,0,0,0-5.81-1.23c-.14,1-.18,6.43-.18,9.53v1.52c0,3.07,0,11.6.18,12.64.8.15,3.4.4,4.15.51l.18.58c-.83-.07-4.87-.15-5.7-.15-1.27,0-4.7.08-5.71.15l.14-.58a32.79,32.79,0,0,0,3.83-.51c.15-1.59.18-9.46.18-12.82Z" style="fill:#fff"></path><path d="M16.61,391.59c0-1.16,0-7.91-.18-9.14-.68-.14-3-.43-3.86-.51l-.11-.57,7.11,0a23.84,23.84,0,0,1,8.13,1.05c3.22,1.33,3.54,3.54,3.54,4.44a7.79,7.79,0,0,1-2.49,5.6c-2.42,2.38-6.25,3.21-7.73,3.39l.11-.83c1.91-.32,7.19-1.66,7.19-6.86a5.29,5.29,0,0,0-3-4.73,12,12,0,0,0-5.81-1.23c-.14,1-.18,6.43-.18,9.53v1.52c0,3.07,0,11.6.18,12.64.8.15,3.4.4,4.15.51l.18.58c-.83-.07-4.87-.15-5.7-.15-1.27,0-4.7.08-5.71.15l.14-.58a32.79,32.79,0,0,0,3.83-.51c.15-1.59.18-9.46.18-12.82Z" style="fill:#fff"></path><path d="M51.69,406.36a27,27,0,0,0,3.65-.51c-.65-2.06-3.25-9.71-3.83-10.94-1.23,0-7.45.25-8.78.43a90.33,90.33,0,0,0-2.89,10.51,19.58,19.58,0,0,0,2.74.51l.15.58c-.76-.07-3.68-.15-4.73-.15-.76,0-3.18.08-4,.15l.11-.58a27.46,27.46,0,0,0,3.1-.51c1.3-2.45,8.49-21.89,9.07-23.44a27,27,0,0,0-2.93-.47l0-.57c1.08.07,3.9.14,4.51.14s4.23-.07,5.2-.14l-.1.57a20.45,20.45,0,0,0-2.75.47c.51,1.77,2.38,7.44,3.79,11.24,1,2.78,3.25,8.84,5,12.2,1,.22,2,.37,3.1.51l.11.58c-.36-.07-4-.15-5-.15-.58,0-4.66.08-5.63.15ZM47.35,383c-.72,1.48-3.75,9.68-4.12,10.94l8.06.15C50.49,391.62,47.79,383.82,47.35,383Z" style="fill:#fff"></path><path d="M51.69,406.36a27,27,0,0,0,3.65-.51c-.65-2.06-3.25-9.71-3.83-10.94-1.23,0-7.45.25-8.78.43a90.33,90.33,0,0,0-2.89,10.51,19.58,19.58,0,0,0,2.74.51l.15.58c-.76-.07-3.68-.15-4.73-.15-.76,0-3.18.08-4,.15l.11-.58a27.46,27.46,0,0,0,3.1-.51c1.3-2.45,8.49-21.89,9.07-23.44a27,27,0,0,0-2.93-.47l0-.57c1.08.07,3.9.14,4.51.14s4.23-.07,5.2-.14l-.1.57a20.45,20.45,0,0,0-2.75.47c.51,1.77,2.38,7.44,3.79,11.24,1,2.78,3.25,8.84,5,12.2,1,.22,2,.37,3.1.51l.11.58c-.36-.07-4-.15-5-.15-.58,0-4.66.08-5.63.15ZM47.35,383c-.72,1.48-3.75,9.68-4.12,10.94l8.06.15C50.49,391.62,47.79,383.82,47.35,383Z" style="fill:#fff"></path><path d="M70.87,391.44c0-2.06,0-7.84-.18-9-.8-.14-2.93-.43-3.87-.51l-.11-.57c.9.07,4.05.14,5.46.14,1.84,0,5.34-.07,6-.14l-.19.57c-.75.08-2.7.37-4.15.51-.14,1.15-.18,6.54-.18,9.43v1.3c0,4.73,0,11.92.18,12.71,5.71,0,7.84-.94,8.63-1.66.55-1.41,1-3.29,1.3-4.3l.69-.14a77.44,77.44,0,0,0-1.91,11.63l-.65-.18c0-.51.21-3.25.18-4.23-.8-.07-8.6-.22-9.76-.22s-4.55.08-5.56.15l.15-.58c.54,0,3.06-.32,3.83-.51.14-1.59.18-8.74.18-12.31Z" style="fill:#fff"></path><path d="M70.87,391.44c0-2.06,0-7.84-.18-9-.8-.14-2.93-.43-3.87-.51l-.11-.57c.9.07,4.05.14,5.46.14,1.84,0,5.34-.07,6-.14l-.19.57c-.75.08-2.7.37-4.15.51-.14,1.15-.18,6.54-.18,9.43v1.3c0,4.73,0,11.92.18,12.71,5.71,0,7.84-.94,8.63-1.66.55-1.41,1-3.29,1.3-4.3l.69-.14a77.44,77.44,0,0,0-1.91,11.63l-.65-.18c0-.51.21-3.25.18-4.23-.8-.07-8.6-.22-9.76-.22s-4.55.08-5.56.15l.15-.58c.54,0,3.06-.32,3.83-.51.14-1.59.18-8.74.18-12.31Z" style="fill:#fff"></path><path d="M105.86,406.36a27,27,0,0,0,3.65-.51c-.65-2.06-3.25-9.71-3.83-10.94-1.23,0-7.44.25-8.78.43A92.4,92.4,0,0,0,94,405.85a20,20,0,0,0,2.75.51l.14.58c-.75-.07-3.68-.15-4.73-.15-.76,0-3.18.08-4,.15l.11-.58a27.64,27.64,0,0,0,3.11-.51c1.3-2.45,8.48-21.89,9.06-23.44a26.87,26.87,0,0,0-2.92-.47l0-.57c1.08.07,3.9.14,4.51.14s4.23-.07,5.21-.14l-.11.57a20,20,0,0,0-2.74.47c.5,1.77,2.38,7.44,3.79,11.24,1,2.78,3.25,8.84,5,12.2,1,.22,2,.37,3.11.51l.11.58c-.37-.07-4-.15-5-.15-.57,0-4.65.08-5.63.15ZM101.53,383c-.73,1.48-3.76,9.68-4.12,10.94l8,.15C104.67,391.62,102,383.82,101.53,383Z" style="fill:#fff"></path><path d="M105.86,406.36a27,27,0,0,0,3.65-.51c-.65-2.06-3.25-9.71-3.83-10.94-1.23,0-7.44.25-8.78.43A92.4,92.4,0,0,0,94,405.85a20,20,0,0,0,2.75.51l.14.58c-.75-.07-3.68-.15-4.73-.15-.76,0-3.18.08-4,.15l.11-.58a27.64,27.64,0,0,0,3.11-.51c1.3-2.45,8.48-21.89,9.06-23.44a26.87,26.87,0,0,0-2.92-.47l0-.57c1.08.07,3.9.14,4.51.14s4.23-.07,5.21-.14l-.11.57a20,20,0,0,0-2.74.47c.5,1.77,2.38,7.44,3.79,11.24,1,2.78,3.25,8.84,5,12.2,1,.22,2,.37,3.11.51l.11.58c-.37-.07-4-.15-5-.15-.57,0-4.65.08-5.63.15ZM101.53,383c-.73,1.48-3.76,9.68-4.12,10.94l8,.15C104.67,391.62,102,383.82,101.53,383Z" style="fill:#fff"></path><path d="M126,383.82a15.94,15.94,0,0,1,9.75-2.89,35,35,0,0,1,7,.76,34,34,0,0,0,.76-3.32l.65-.19a88.25,88.25,0,0,0-.79,10.91l-.65-.18c0-.5-.12-3.54-.22-4.15-.65-1.08-3.72-2.71-8.16-2.71-6.94,0-11.28,5.06-11.28,10.62,0,6.75,4.7,13.22,13.77,13.22a16.3,16.3,0,0,0,8.16-1.95l-.18,1.23c-1.05.72-4.73,2.2-9.86,2.2a19.8,19.8,0,0,1-7.66-1.59,11.87,11.87,0,0,1-7-10.94,13.44,13.44,0,0,1,5.67-11" style="fill:#fff"></path><path d="M126,383.82a15.94,15.94,0,0,1,9.75-2.89,35,35,0,0,1,7,.76,34,34,0,0,0,.76-3.32l.65-.19a88.25,88.25,0,0,0-.79,10.91l-.65-.18c0-.5-.12-3.54-.22-4.15-.65-1.08-3.72-2.71-8.16-2.71-6.94,0-11.28,5.06-11.28,10.62,0,6.75,4.7,13.22,13.77,13.22a16.3,16.3,0,0,0,8.16-1.95l-.18,1.23c-1.05.72-4.73,2.2-9.86,2.2a19.8,19.8,0,0,1-7.66-1.59,11.87,11.87,0,0,1-7-10.94,13.44,13.44,0,0,1,5.67-11" style="fill:#fff"></path><path d="M155.86,392.74c0-3.25-.11-9.17-.26-10.29-.68-.15-2.89-.4-3.76-.51l-.14-.58c1.74.08,4.81.15,5.53.15,1.15,0,9.64,0,10.62-.25a15.17,15.17,0,0,0,.29-1.7l.65-.14c-.18.75-.65,6.35-.73,7.47l-.61-.25c0-.25,0-2.06,0-2.78-.65-1.05-6.21-1.52-8.59-1.52-.12.47-.26,7.66-.26,9.9V393a36.92,36.92,0,0,0,8-.65c.14-.54.25-1.05.36-1.55l.58-.07c-.26.65-.76,5.49-.94,6.64l-.51-.29c0-.76.08-1.76.08-2.49-1.13-.58-3.94-.83-7.52-.83v.76c0,2.28.14,10.33.26,11.38,4.07,0,7.47-.29,9.13-1.23.4-1.26.58-2.57.8-3.36l.65-.22c-.26,1.05-1.05,6.54-1.19,8.35l-.58-.15c0-1,0-1.62,0-2.2-1-.18-9.06-.33-10.44-.33-1.23,0-4.08.08-5.49.15l.18-.58a29.89,29.89,0,0,0,3.72-.5c.15-.48.26-7.48.26-11.45Z" style="fill:#fff"></path><path d="M155.86,392.74c0-3.25-.11-9.17-.26-10.29-.68-.15-2.89-.4-3.76-.51l-.14-.58c1.74.08,4.81.15,5.53.15,1.15,0,9.64,0,10.62-.25a15.17,15.17,0,0,0,.29-1.7l.65-.14c-.18.75-.65,6.35-.73,7.47l-.61-.25c0-.25,0-2.06,0-2.78-.65-1.05-6.21-1.52-8.59-1.52-.12.47-.26,7.66-.26,9.9V393a36.92,36.92,0,0,0,8-.65c.14-.54.25-1.05.36-1.55l.58-.07c-.26.65-.76,5.49-.94,6.64l-.51-.29c0-.76.08-1.76.08-2.49-1.13-.58-3.94-.83-7.52-.83v.76c0,2.28.14,10.33.26,11.38,4.07,0,7.47-.29,9.13-1.23.4-1.26.58-2.57.8-3.36l.65-.22c-.26,1.05-1.05,6.54-1.19,8.35l-.58-.15c0-1,0-1.62,0-2.2-1-.18-9.06-.33-10.44-.33-1.23,0-4.08.08-5.49.15l.18-.58a29.89,29.89,0,0,0,3.72-.5c.15-.48.26-7.48.26-11.45Z" style="fill:#fff"></path><path d="M219,394.3c0,4.19.07,10.33.32,11.55.73.15,2.93.48,3.65.51l.18.58c-.68-.07-4.37-.15-5.24-.15s-4.4.08-5.63.15l.18-.58c.54,0,2.93-.36,3.58-.51.21-1.22.21-6,.21-9.82v-2.2c-1.69-.15-15.38.61-16.79.58V396c0,3.68.14,8.49.29,9.82,1,.22,2.78.44,3.5.51l.18.58c-.76-.07-4.34-.15-5.16-.15-1.23,0-4.63.08-5.71.15l.21-.58a34.18,34.18,0,0,0,3.76-.51c.14-1.87.18-7.94.18-10.69v-3.39c0-1.16,0-8.13-.18-9.32-.65-.15-2.56-.4-3.79-.51l-.18-.58c.61.08,4,.15,5.42.15,1.8,0,4.87-.07,5.45-.15l-.18.58a31.19,31.19,0,0,0-3.5.51c-.15,1-.29,5.41-.29,8.52v1.92c.9,0,14.45.14,16.79-.11V391c0-2.82,0-7.62-.21-8.52a33.32,33.32,0,0,0-3.58-.51l-.18-.58c.61.08,4,.15,5.38.15,1.81,0,4.84-.07,5.49-.15l-.21.58c-.73.08-2.64.36-3.69.51-.18.72-.25,8.34-.25,9.32Z" style="fill:#fff"></path><path d="M219,394.3c0,4.19.07,10.33.32,11.55.73.15,2.93.48,3.65.51l.18.58c-.68-.07-4.37-.15-5.24-.15s-4.4.08-5.63.15l.18-.58c.54,0,2.93-.36,3.58-.51.21-1.22.21-6,.21-9.82v-2.2c-1.69-.15-15.38.61-16.79.58V396c0,3.68.14,8.49.29,9.82,1,.22,2.78.44,3.5.51l.18.58c-.76-.07-4.34-.15-5.16-.15-1.23,0-4.63.08-5.71.15l.21-.58a34.18,34.18,0,0,0,3.76-.51c.14-1.87.18-7.94.18-10.69v-3.39c0-1.16,0-8.13-.18-9.32-.65-.15-2.56-.4-3.79-.51l-.18-.58c.61.08,4,.15,5.42.15,1.8,0,4.87-.07,5.45-.15l-.18.58a31.19,31.19,0,0,0-3.5.51c-.15,1-.29,5.41-.29,8.52v1.92c.9,0,14.45.14,16.79-.11V391c0-2.82,0-7.62-.21-8.52a33.32,33.32,0,0,0-3.58-.51l-.18-.58c.61.08,4,.15,5.38.15,1.81,0,4.84-.07,5.49-.15l-.21.58c-.73.08-2.64.36-3.69.51-.18.72-.25,8.34-.25,9.32Z" style="fill:#fff"></path><path d="M233.7,403.4a11.69,11.69,0,0,1-3.4-8.74c0-7.23,6.11-13.73,14.7-13.73,3.18,0,6.58.33,10.05,2.93a11.37,11.37,0,0,1,4.48,8.95c0,8.82-6.65,14.56-15.07,14.56-3.29,0-7.59-.61-10.76-4m23.12-8.53a12.82,12.82,0,0,0-12.64-12.64c-5.68,0-11.35,3.4-11.35,10.87a13.29,13.29,0,0,0,12.9,12.9C253.06,406,256.82,400.76,256.82,394.87Z" style="fill:#fff"></path><path d="M233.7,403.4a11.69,11.69,0,0,1-3.4-8.74c0-7.23,6.11-13.73,14.7-13.73,3.18,0,6.58.33,10.05,2.93a11.37,11.37,0,0,1,4.48,8.95c0,8.82-6.65,14.56-15.07,14.56-3.29,0-7.59-.61-10.76-4m23.12-8.53a12.82,12.82,0,0,0-12.64-12.64c-5.68,0-11.35,3.4-11.35,10.87a13.29,13.29,0,0,0,12.9,12.9C253.06,406,256.82,400.76,256.82,394.87Z" style="fill:#fff"></path><path d="M265.59,387.72a88.3,88.3,0,0,0,.54-8.85l.65.15a15,15,0,0,0,.22,2.34c.58.11,7,.36,11.84.36,5.25,0,11.67-.25,12.25-.36a18.32,18.32,0,0,0,.51-2.23l.72-.15c-.29.83-1.05,8.24-1.16,9.07l-.65-.22c.08-1.44.11-3.11.08-4-.91-.66-6-1.27-10.3-1.27-.11,1-.18,6.5-.18,9.29v1.62c0,3.18.07,9.28.18,12.35.69.11,4,.44,4.66.51l.14.58c-.86-.07-5.09-.15-6.39-.15-.94,0-5.27.08-6.32.15l.18-.58c.83-.07,3.76-.4,4.62-.51.11-3,.18-9.21.18-12.35v-1.62c0-2.86-.07-8.46-.18-9.29-6.89,0-9.24.72-10.22,1.27-.29.86-.5,2.71-.72,3.64Z" style="fill:#fff"></path><path d="M265.59,387.72a88.3,88.3,0,0,0,.54-8.85l.65.15a15,15,0,0,0,.22,2.34c.58.11,7,.36,11.84.36,5.25,0,11.67-.25,12.25-.36a18.32,18.32,0,0,0,.51-2.23l.72-.15c-.29.83-1.05,8.24-1.16,9.07l-.65-.22c.08-1.44.11-3.11.08-4-.91-.66-6-1.27-10.3-1.27-.11,1-.18,6.5-.18,9.29v1.62c0,3.18.07,9.28.18,12.35.69.11,4,.44,4.66.51l.14.58c-.86-.07-5.09-.15-6.39-.15-.94,0-5.27.08-6.32.15l.18-.58c.83-.07,3.76-.4,4.62-.51.11-3,.18-9.21.18-12.35v-1.62c0-2.86-.07-8.46-.18-9.29-6.89,0-9.24.72-10.22,1.27-.29.86-.5,2.71-.72,3.64Z" style="fill:#fff"></path><path d="M301.78,392.74c0-3.25-.11-9.17-.25-10.29-.69-.15-2.89-.4-3.76-.51l-.14-.58c1.73.08,4.8.15,5.52.15,1.16,0,9.65,0,10.62-.25a13.18,13.18,0,0,0,.29-1.7l.65-.14c-.18.75-.65,6.35-.72,7.47l-.61-.25c0-.25,0-2.06,0-2.78-.65-1.05-6.22-1.52-8.6-1.52-.11.47-.25,7.66-.25,9.9V393a36.8,36.8,0,0,0,7.94-.65c.15-.54.26-1.05.36-1.55l.58-.07c-.25.65-.76,5.49-.94,6.64l-.5-.29c0-.76.07-1.76.07-2.49-1.12-.58-3.94-.83-7.51-.83v.76c0,2.28.14,10.33.25,11.38,4.08,0,7.48-.29,9.14-1.23.4-1.26.57-2.57.79-3.36l.65-.22c-.25,1.05-1,6.54-1.19,8.35l-.58-.15c0-1,0-1.62,0-2.2-1.05-.18-9.07-.33-10.44-.33s-4.08.08-5.49.15l.18-.58a30.14,30.14,0,0,0,3.72-.5c.14-.48.25-7.48.25-11.45Z" style="fill:#fff"></path><path d="M301.78,392.74c0-3.25-.11-9.17-.25-10.29-.69-.15-2.89-.4-3.76-.51l-.14-.58c1.73.08,4.8.15,5.52.15,1.16,0,9.65,0,10.62-.25a13.18,13.18,0,0,0,.29-1.7l.65-.14c-.18.75-.65,6.35-.72,7.47l-.61-.25c0-.25,0-2.06,0-2.78-.65-1.05-6.22-1.52-8.6-1.52-.11.47-.25,7.66-.25,9.9V393a36.8,36.8,0,0,0,7.94-.65c.15-.54.26-1.05.36-1.55l.58-.07c-.25.65-.76,5.49-.94,6.64l-.5-.29c0-.76.07-1.76.07-2.49-1.12-.58-3.94-.83-7.51-.83v.76c0,2.28.14,10.33.25,11.38,4.08,0,7.48-.29,9.14-1.23.4-1.26.57-2.57.79-3.36l.65-.22c-.25,1.05-1,6.54-1.19,8.35l-.58-.15c0-1,0-1.62,0-2.2-1.05-.18-9.07-.33-10.44-.33s-4.08.08-5.49.15l.18-.58a30.14,30.14,0,0,0,3.72-.5c.14-.48.25-7.48.25-11.45Z" style="fill:#fff"></path><path d="M328.22,391.44c0-2.06,0-7.84-.18-9-.8-.14-2.93-.43-3.87-.51l-.1-.57c.9.07,4,.14,5.45.14,1.84,0,5.35-.07,6-.14l-.18.57c-.76.08-2.71.37-4.15.51-.15,1.15-.19,6.54-.19,9.43v1.3c0,4.73,0,11.92.19,12.71,5.7,0,7.83-.94,8.63-1.66.54-1.41,1-3.29,1.3-4.3l.69-.14a76,76,0,0,0-1.92,11.63l-.65-.18c0-.51.22-3.25.18-4.23-.79-.07-8.6-.22-9.75-.22s-4.55.08-5.56.15l.14-.58a38.35,38.35,0,0,0,3.83-.51c.15-1.59.18-8.74.18-12.31Z" style="fill:#fff"></path><path d="M328.22,391.44c0-2.06,0-7.84-.18-9-.8-.14-2.93-.43-3.87-.51l-.1-.57c.9.07,4,.14,5.45.14,1.84,0,5.35-.07,6-.14l-.18.57c-.76.08-2.71.37-4.15.51-.15,1.15-.19,6.54-.19,9.43v1.3c0,4.73,0,11.92.19,12.71,5.7,0,7.83-.94,8.63-1.66.54-1.41,1-3.29,1.3-4.3l.69-.14a76,76,0,0,0-1.92,11.63l-.65-.18c0-.51.22-3.25.18-4.23-.79-.07-8.6-.22-9.75-.22s-4.55.08-5.56.15l.14-.58a38.35,38.35,0,0,0,3.83-.51c.15-1.59.18-8.74.18-12.31Z" style="fill:#fff"></path><path d="M146.68,353.88c0,2.36,0,4.18-.13,4.88-2,1-6.52,1.32-7.73,1.32a18.07,18.07,0,0,1-18.16-17.77c0-7.59,5.86-13.74,15.06-13.74,7.27,0,11.48,3.1,12.09,3.57.14.84.47,3.89.52,4.55l.84.32a120.8,120.8,0,0,1,.66-13.3l-.85.22c-.13,1-.65,3.62-.83,4.36a47.37,47.37,0,0,0-10.61-1.17c-4.17,0-9.18.89-13.12,3.71a17,17,0,0,0-7.36,14.24c0,5.86,3.42,11.17,9.33,14.12,3.93,2,8.76,2.25,11.81,2.25a57.36,57.36,0,0,0,12.14-1.55c-.09-1.31-.09-3.8-.09-5.53v-1.5c0-1.31.05-4.63.18-5.34,1-.24,3.67-.52,4.08-.61l.24-.76c-.56.1-5.12.15-6.23.15l-7-.05.28.75c.89.1,3.8.52,4.73.61a28.94,28.94,0,0,1,.18,3.9ZM59.22,328.62c1.54.1,4.08.34,5.15.56,0,1.56-.51,28.32-1.07,30.29a39.58,39.58,0,0,1-4.14.66l-.13.75c1.12-.1,4.78-.19,6.14-.19s6.09.09,6.94.09L72,360c-.89-.09-4.88-.43-5.57-.66-.38-1.69-.7-26.54-.61-28.64,1.21,1.45,11.34,13.87,12,14.67,1.12,1.41,13.87,17.25,14.67,18.32,0-2.67.37-22.35.43-24.55,0-1.51.32-8.12.7-10.18l3.84-.66.19-.75c-1,.09-4.64.18-5.68.18s-6.08-.09-7-.09l.22.76c1.32.09,4.27.46,5.21.65.56,2.67.61,24.1.61,27.15h-.09C90.3,355.39,81,343.72,79.56,342c-.8-1-10.08-12.89-11.11-14.48-2.63.18-7,.22-9.42.33ZM43.55,344.09l-10.46-.18c.48-1.64,4.41-12.28,5.35-14.21C39,330.78,42.53,340.9,43.55,344.09Zm.28,16.79c1.27-.1,6.56-.19,7.32-.19,1.3,0,6.05.09,6.51.09l-.15-.74c-1.39-.2-2.76-.39-4-.66-2.25-4.36-5.1-12.25-6.47-15.85C45.2,338.6,42.75,331.25,42.1,329a26.89,26.89,0,0,1,3.56-.62l.15-.75c-1.28.09-6,.18-6.75.18s-4.47-.09-5.86-.09l0,.76a33.36,33.36,0,0,1,3.8.61c-.76,2-10.09,27.23-11.78,30.42a36.24,36.24,0,0,1-4,.66l-.15.75c1.08-.1,4.23-.19,5.21-.19,1.35,0,5.16.09,6.14.09l-.19-.74a29.4,29.4,0,0,1-3.56-.66c.56-3.85,3.38-12.56,3.75-13.64,1.74-.24,9.79-.57,11.39-.57.76,1.59,4.13,11.53,5,14.21a37.44,37.44,0,0,1-4.73.66ZM11.72,327.12c-6.7,0-9.33,4.83-9.33,8,0,4.45,3.34,7,7.92,10C14,347.52,17,349.34,17,353.57c0,4.08-3.18,6.6-7.36,6.6a8.61,8.61,0,0,1-7.51-4.73,47.85,47.85,0,0,1-.32-4.82l-.94-.3c.09,1.13-.09,5.87-.13,7.42-.05,2.48-.67,7-.76,7.68l.94-.28c.32-1.73.8-4,1-4.87a19.13,19.13,0,0,0,6.71,1.17c6.38,0,11.2-3.89,11.2-10,0-5-3.75-7.78-7.51-10.18-5.43-3.46-7.44-4.73-7.44-7.86,0-2.45,1.91-5.12,6.42-5.12a7,7,0,0,1,6.47,4.32,24.87,24.87,0,0,1,.19,3.8l.93.23a95.89,95.89,0,0,1,1.13-12.37l-.95.13c-.27,1.27-.5,2.68-.83,4.13A13.92,13.92,0,0,0,11.72,327.12Z" style="fill:#fff"></path><path d="M11.72,327.12c-6.7,0-9.33,4.83-9.33,8,0,4.45,3.33,7,7.92,10C14,347.52,17,349.34,17,353.56s-3.19,6.61-7.36,6.61a8.58,8.58,0,0,1-7.5-4.73,45.07,45.07,0,0,1-.33-4.83l-.94-.28c.1,1.12-.09,5.86-.14,7.41,0,2.48-.65,7-.75,7.68l.94-.28c.33-1.73.8-4,1-4.87a19.13,19.13,0,0,0,6.71,1.17c6.37,0,11.2-3.89,11.2-10,0-5-3.75-7.78-7.5-10.17-5.44-3.47-7.45-4.73-7.45-7.87,0-2.44,1.92-5.12,6.42-5.12a7,7,0,0,1,6.47,4.32,24.87,24.87,0,0,1,.19,3.8l.93.23a94.42,94.42,0,0,1,1.13-12.38l-.94.14c-.28,1.27-.51,2.68-.85,4.13a13.87,13.87,0,0,0-6.56-1.41" style="fill:#fff"></path><path d="M43.55,344.19,33.1,344c.47-1.64,4.41-12.28,5.34-14.21.56,1.08,4.08,11.21,5.11,14.4m.29,16.69c1.26-.1,6.56-.19,7.31-.19,1.31,0,6.05.09,6.52.19l-.15-.75c-1.4-.19-2.76-.38-4-.66-2.25-4.36-5.11-12.23-6.47-15.85-1.82-4.92-4.26-12.28-4.92-14.57a26.92,26.92,0,0,1,3.56-.61l.14-.75c-1.26.09-5.95.19-6.75.19s-4.45-.1-5.86-.19l.05.75a36.16,36.16,0,0,1,3.8.61c-.75,2-10.08,27.23-11.77,30.42a36.43,36.43,0,0,1-4,.66l-.14.75c1.08-.1,4.22-.19,5.2-.19,1.36,0,5.16.09,6.14.19l-.18-.75a26.13,26.13,0,0,1-3.57-.66c.56-3.84,3.38-12.56,3.75-13.64,1.74-.24,9.8-.56,11.4-.56.75,1.59,4.12,11.53,5,14.2a35.47,35.47,0,0,1-4.73.66Z" style="fill:#fff"></path><path d="M59.21,328.62a49.72,49.72,0,0,1,5.16.56c0,1.55-.52,28.32-1.08,30.29-1.08.33-3,.47-4.13.66l-.14.75c1.13-.1,4.78-.19,6.14-.19s6.1.09,7,.19l-.15-.75c-.89-.1-4.87-.42-5.58-.66-.37-1.69-.7-26.53-.61-28.64,1.22,1.45,11.35,13.88,12,14.67,1.13,1.41,13.88,17.25,14.68,18.33,0-2.67.37-22.36.42-24.56,0-1.51.33-8.12.7-10.18,1.08-.18,3.24-.56,3.85-.65l.19-.75c-1,.09-4.65.18-5.68.18s-6.09-.09-7-.18l.23.75c1.32.09,4.27.47,5.21.65.56,2.67.6,24.1.6,27.15H90.9c-.61-.85-9.94-12.52-11.34-14.21-.8-1-10.08-12.89-11.12-14.48-2.62.18-7,.23-9.42.32Z" style="fill:#fff"></path><path d="M146.69,353.89c0,2.35-.05,4.17-.14,4.88-2,1-6.52,1.31-7.74,1.31a18.06,18.06,0,0,1-18.14-17.77c0-7.59,5.86-13.73,15-13.73,7.26,0,11.48,3.09,12.1,3.56.13.84.46,3.89.51,4.55l.84.32a121.13,121.13,0,0,1,.66-13.31l-.85.24c-.14,1-.65,3.6-.84,4.35a47.17,47.17,0,0,0-10.59-1.17c-4.17,0-9.19.9-13.13,3.71a17,17,0,0,0-7.36,14.25c0,5.86,3.42,11.16,9.33,14.11,3.94,2,8.77,2.25,11.81,2.25a57.36,57.36,0,0,0,12.14-1.55c-.09-1.31-.09-3.8-.09-5.53v-1.5c0-1.31.05-4.64.19-5.34,1-.24,3.65-.52,4.08-.61l.23-.75c-.56.09-5.11.14-6.23.14s-6.38-.05-7-.14l.27.75c.9.09,3.8.51,4.74.61a28.48,28.48,0,0,1,.19,3.89Z" style="fill:#fff"></path><path d="M198.17,359.65c-9.18,0-16.73-8.2-16.73-16.73,0-9.7,7.35-14.11,14.71-14.11a16.64,16.64,0,0,1,16.41,16.41c0,7.64-4.88,14.43-14.39,14.43m-1.64,1.79c10.93,0,19.55-7.45,19.55-18.89a14.76,14.76,0,0,0-5.82-11.63c-4.49-3.37-8.9-3.8-13-3.8-11.15,0-19.07,8.44-19.07,17.82a15.2,15.2,0,0,0,4.4,11.34C186.69,360.64,192.27,361.44,196.53,361.44ZM164.65,344c0,4.6-.06,13.5-.24,15.47-1,.18-4.17.61-5,.66l-.19.75c1.41-.1,5.72-.19,7.31-.19,1.13,0,6,.09,7,.09l-.23-.74c-1-.09-3.75-.39-4.92-.66-.2-.94-.24-9-.24-15.1v-2.9c0-5.77,0-11.92.24-12.38,1.69-.19,4-.56,4.92-.66l.23-.75c-.79.09-4.83.18-7.22.18-1.92,0-6.24-.09-7.13-.09l.24.76c.89.09,4,.46,4.92.65.18,1.59.24,10.6.24,12.15Z" style="fill:#fff"></path><path d="M164.64,344c0,4.59,0,13.5-.23,15.47-1,.19-4.17.61-5,.66l-.19.75c1.41-.1,5.72-.19,7.31-.19,1.13,0,6,.09,7,.19l-.23-.75c-1-.1-3.76-.38-4.93-.66-.19-.94-.23-9-.23-15.09v-2.91c0-5.77,0-11.91.23-12.38,1.69-.19,4-.56,4.93-.65l.23-.75c-.8.09-4.83.19-7.22.19-1.93,0-6.24-.1-7.13-.19l.24.75c.89.09,4,.46,4.92.65.18,1.6.23,10.6.23,12.15Z" style="fill:#fff"></path><path d="M198.17,359.66c-9.19,0-16.74-8.2-16.74-16.74,0-9.7,7.36-14.11,14.72-14.11a16.64,16.64,0,0,1,16.41,16.41c0,7.64-4.88,14.44-14.39,14.44m-1.65,1.78c10.93,0,19.55-7.45,19.55-18.9a14.73,14.73,0,0,0-5.81-11.62c-4.5-3.37-8.91-3.8-13-3.8-11.15,0-19.08,8.44-19.08,17.82a15.17,15.17,0,0,0,4.41,11.34C186.68,360.64,192.26,361.44,196.52,361.44Z" style="fill:#fff"></path><path d="M229.48,342.83c0-3.56.09-12.19.23-14.11,9.9,0,12.61,3.7,12.61,6.89a8.31,8.31,0,0,1-5.34,7.78,24.24,24.24,0,0,1-7.5.89Zm-3.47.93c0,4.93,0,14.35-.24,15.71a42.94,42.94,0,0,1-5,.66l-.18.75c1.07-.1,6-.19,6.84-.19,1.46,0,6.19.09,7.36.09l-.18-.74a47.94,47.94,0,0,1-4.93-.66c-.14-2.16-.23-9.61-.23-12.66V345.5c.8,0,4.51-.15,6.29-.28.74,1,12.74,15.32,14.71,16.64l2-.19c-4.77-5.06-12.31-17.34-12.7-18.28,3.47-2.25,6.47-6.14,6.47-9.09,0-2.58-1.54-4.36-4-5.34-3.19-1.28-8.78-1.32-12.62-1.32l-8.95,0,.14.76c1,.09,4.22.37,5,.56.19.89.24,10.12.24,11.81Z" style="fill:#fff"></path><path d="M229.48,342.92c0-3.56.09-12.18.23-14.11,9.9,0,12.62,3.71,12.62,6.89a8.31,8.31,0,0,1-5.35,7.78,24.58,24.58,0,0,1-7.5.9Zm-3.47.85c0,4.92,0,14.34-.23,15.7a43.8,43.8,0,0,1-5,.66l-.19.75c1.08-.1,6-.19,6.84-.19,1.46,0,6.19.09,7.36.19l-.18-.75a48.32,48.32,0,0,1-4.93-.66c-.14-2.16-.23-9.61-.23-12.66v-1.22c.8,0,4.5-.14,6.28-.28.75,1,12.75,15.33,14.72,16.64l2-.18c-4.78-5.07-12.33-17.35-12.7-18.29,3.46-2.24,6.46-6.14,6.46-9.09,0-2.58-1.54-4.36-4-5.34-3.18-1.27-8.76-1.32-12.61-1.32l-8.95,0,.14.75c1,.09,4.22.37,5,.56.18.89.23,10.13.23,11.82Z" style="fill:#fff"></path><path d="M284.79,353.88c0,2.36,0,4.18-.13,4.88-2,1-6.52,1.32-7.73,1.32a18.06,18.06,0,0,1-18.15-17.77c0-7.59,5.86-13.74,15.05-13.74,7.27,0,11.48,3.1,12.09,3.57.14.84.47,3.89.52,4.55l.84.32a120.8,120.8,0,0,1,.66-13.3l-.85.22c-.13,1-.65,3.62-.83,4.36a47.3,47.3,0,0,0-10.61-1.17c-4.17,0-9.18.89-13.11,3.71a17,17,0,0,0-7.37,14.24c0,5.86,3.42,11.17,9.33,14.12,3.94,2,8.76,2.25,11.82,2.25a57.35,57.35,0,0,0,12.13-1.55c-.09-1.31-.09-3.8-.09-5.53v-1.5c0-1.31.05-4.63.18-5.34,1-.24,3.67-.52,4.08-.61l.24-.76c-.56.1-5.12.15-6.23.15l-7-.05.28.75c.89.1,3.8.52,4.73.61a27.36,27.36,0,0,1,.18,3.9Z" style="fill:#fff"></path><path d="M284.8,353.89c0,2.35-.05,4.17-.15,4.88-2,1-6.51,1.31-7.73,1.31a18.06,18.06,0,0,1-18.14-17.77c0-7.59,5.86-13.73,15.05-13.73,7.26,0,11.48,3.09,12.09,3.56.14.84.47,3.89.52,4.55l.84.32a121.13,121.13,0,0,1,.66-13.31l-.85.24c-.14,1-.65,3.6-.84,4.35a47.17,47.17,0,0,0-10.59-1.17c-4.18,0-9.19.9-13.13,3.71a17,17,0,0,0-7.36,14.25c0,5.86,3.42,11.16,9.33,14.11,3.94,2,8.76,2.25,11.81,2.25a57.44,57.44,0,0,0,12.14-1.55c-.09-1.31-.09-3.8-.09-5.53v-1.5c0-1.31.05-4.64.19-5.34,1-.24,3.65-.52,4.08-.61l.23-.75c-.56.09-5.11.14-6.24.14s-6.37-.05-7-.14l.27.75c.9.09,3.8.51,4.74.61a28.48,28.48,0,0,1,.19,3.89Z" style="fill:#fff"></path><path d="M302.76,344c0,4.6-.06,13.5-.24,15.47-1,.18-4.18.61-5,.66l-.19.75c1.41-.1,5.71-.19,7.31-.19,1.13,0,6,.09,7,.09l-.24-.74c-.94-.09-3.74-.39-4.91-.66-.2-.94-.24-9-.24-15.1v-2.9c0-5.77,0-11.92.24-12.38,1.68-.19,4-.56,4.91-.66l.24-.75c-.8.09-4.83.18-7.23.18-1.91,0-6.23-.09-7.12-.09l.24.76c.89.09,4,.46,4.92.65.18,1.59.24,10.6.24,12.15Z" style="fill:#fff"></path><path d="M302.75,344c0,4.59-.05,13.5-.23,15.47-1,.19-4.17.61-5,.66l-.19.75c1.41-.1,5.72-.19,7.31-.19,1.13,0,6,.09,7,.19l-.24-.75c-.94-.1-3.75-.38-4.92-.66-.19-.94-.24-9-.24-15.09v-2.91c0-5.77.05-11.91.24-12.38,1.69-.19,4-.56,4.92-.65l.24-.75c-.8.09-4.83.19-7.22.19-1.93,0-6.24-.1-7.13-.19l.23.75c.9.09,4,.46,4.93.65.18,1.6.23,10.6.23,12.15Z" style="fill:#fff"></path><path d="M336.27,359.65c-9.18,0-16.73-8.2-16.73-16.73,0-9.7,7.35-14.11,14.71-14.11a16.64,16.64,0,0,1,16.41,16.41c0,7.64-4.87,14.43-14.39,14.43m-1.63,1.79c10.92,0,19.55-7.45,19.55-18.89a14.76,14.76,0,0,0-5.82-11.63c-4.5-3.37-8.91-3.8-13-3.8-11.15,0-19.07,8.44-19.07,17.82a15.16,15.16,0,0,0,4.4,11.34C324.79,360.64,330.37,361.44,334.64,361.44Z" style="fill:#fff"></path><path d="M336.27,359.66c-9.19,0-16.74-8.2-16.74-16.74,0-9.7,7.36-14.11,14.73-14.11a16.63,16.63,0,0,1,16.4,16.41c0,7.64-4.87,14.44-14.39,14.44m-1.64,1.78c10.93,0,19.55-7.45,19.55-18.9a14.76,14.76,0,0,0-5.81-11.62c-4.51-3.37-8.91-3.8-13-3.8-11.15,0-19.08,8.44-19.08,17.82a15.17,15.17,0,0,0,4.41,11.34C324.79,360.64,330.37,361.44,334.63,361.44Z" style="fill:#fff"></path></g></g></svg> 