<svg xmlns="http://www.w3.org/2000/svg" xmlns:xlink="http://www.w3.org/1999/xlink" width="200" height="59.335" viewBox="0 0 200 59.335">
  <defs>
    <clipPath id="clip-path">
      <rect id="Rettangolo_19" data-name="Rettangolo 19" width="200" height="59.335" fill="#fff"/>
    </clipPath>
  </defs>
  <g id="Raggruppa_14" data-name="Raggruppa 14" transform="translate(0 0)">
    <g id="Raggruppa_13" data-name="Raggruppa 13" transform="translate(0 0)" clip-path="url(#clip-path)">
      <path id="Tracciato_1" data-name="Tracciato 1" d="M12.7,61.859A25.189,25.189,0,0,1,0,58.456V66.09H59.262V25.261a16.932,16.932,0,0,0-29.631,11.2H38.1a25.4,25.4,0,0,1-25.4,25.4m29.631-25.4H50.8v8.469H42.331Z" transform="translate(0 -6.828)" fill="#fff"/>
      <path id="Tracciato_2" data-name="Tracciato 2" d="M46.568,4.238a25.24,25.24,0,0,1,12.694,3.4V0H0V40.83a16.928,16.928,0,0,0,29.631-11.2H21.168a25.4,25.4,0,0,1,25.4-25.394" transform="translate(0 0)" fill="#fff"/>
      <path id="Tracciato_3" data-name="Tracciato 3" d="M121.231,10.484h5.8V7.2h-5.8V4.6h6.624V1.321H116.893V15h4.338Z" transform="translate(-40.874 -0.462)" fill="#fff"/>
      <path id="Tracciato_4" data-name="Tracciato 4" d="M145.056,11.48h1.58L149.023,15h4.611l-2.92-4.254a4.81,4.81,0,0,0,1.885-1.6,4.707,4.707,0,0,0,.762-2.706,4.863,4.863,0,0,0-.762-2.726,4.859,4.859,0,0,0-2.14-1.778,8.04,8.04,0,0,0-3.293-.615h-6.448V15h4.338Zm3.429-6.33A1.651,1.651,0,0,1,149,6.439a1.659,1.659,0,0,1-.518,1.28,2.282,2.282,0,0,1-1.593.479h-1.837V4.681h1.837a2.314,2.314,0,0,1,1.593.469" transform="translate(-49.204 -0.461)" fill="#fff"/>
      <path id="Tracciato_5" data-name="Tracciato 5" d="M178.763,11.715h-6.956V9.644h5.881V6.479h-5.881V4.6h6.7V1.321H167.547V15h11.216Z" transform="translate(-58.585 -0.462)" fill="#fff"/>
      <path id="Tracciato_6" data-name="Tracciato 6" d="M205.619,11.784A6.641,6.641,0,0,0,206.6,8.14a6.558,6.558,0,0,0-.977-3.615,6.526,6.526,0,0,0-2.706-2.364,9.042,9.042,0,0,0-4-.84h-6.643V15h6.643a9.042,9.042,0,0,0,4-.84,6.5,6.5,0,0,0,2.706-2.374m-3.82-1.759a2.815,2.815,0,0,1-1.221,1.182,4.112,4.112,0,0,1-1.856.391h-2.11V4.721h2.11a4.1,4.1,0,0,1,1.856.391A2.842,2.842,0,0,1,201.8,6.274a3.755,3.755,0,0,1,.44,1.885,3.783,3.783,0,0,1-.44,1.866" transform="translate(-67.231 -0.462)" fill="#fff"/>
      <rect id="Rettangolo_15" data-name="Rettangolo 15" width="4.338" height="13.677" transform="translate(144.112 0.859)" fill="#fff"/>
      <path id="Tracciato_7" data-name="Tracciato 7" d="M250.381,15l-6-13.677h-4.26l-6,13.677h4.4l.977-2.5h5.432l.977,2.5Zm-9.662-5.627,1.5-3.828,1.5,3.828Z" transform="translate(-81.865 -0.462)" fill="#fff"/>
      <path id="Tracciato_8" data-name="Tracciato 8" d="M269.2,8.356,274.729,15h3.536V1.321h-4.2V7.986l-5.549-6.665h-3.537V15H269.2Z" transform="translate(-92.654 -0.462)" fill="#fff"/>
      <rect id="Rettangolo_16" data-name="Rettangolo 16" width="4.338" height="13.677" transform="translate(190.984 0.859)" fill="#fff"/>
      <path id="Tracciato_9" data-name="Tracciato 9" d="M127.355,43.825a7.014,7.014,0,0,0-1.5-.713,13.11,13.11,0,0,0-1.621-.44l-1.5-.3A3.673,3.673,0,0,1,121.64,42a.7.7,0,0,1-.41-.626.8.8,0,0,1,.185-.508,1.2,1.2,0,0,1,.616-.362,4.208,4.208,0,0,1,1.152-.127,7.159,7.159,0,0,1,1.847.254,10.059,10.059,0,0,1,1.944.762l1.309-3.146a8.4,8.4,0,0,0-2.384-.9,12.5,12.5,0,0,0-2.7-.293,8.549,8.549,0,0,0-3.448.616,4.713,4.713,0,0,0-2.091,1.651,3.99,3.99,0,0,0-.694,2.266,3.645,3.645,0,0,0,.41,1.817,3.38,3.38,0,0,0,1.095,1.173,6.459,6.459,0,0,0,1.494.723,14.69,14.69,0,0,0,1.632.449q.82.177,1.494.332a4.262,4.262,0,0,1,1.095.391.716.716,0,0,1,.42.644.642.642,0,0,1-.2.47,1.323,1.323,0,0,1-.615.3,4.819,4.819,0,0,1-1.143.107,8.367,8.367,0,0,1-2.354-.351,9.412,9.412,0,0,1-2.159-.918l-1.387,3.146a8.653,8.653,0,0,0,2.579,1.045,13.345,13.345,0,0,0,3.282.4,8.416,8.416,0,0,0,3.468-.625,4.831,4.831,0,0,0,2.071-1.651,3.949,3.949,0,0,0,.694-2.257,3.673,3.673,0,0,0-.4-1.8,3.184,3.184,0,0,0-1.095-1.163" transform="translate(-40.825 -12.956)" fill="#fff"/>
      <path id="Tracciato_10" data-name="Tracciato 10" d="M152.379,50.624A6.638,6.638,0,0,0,154.9,48.66L152.184,46.2a4.8,4.8,0,0,1-1.387,1.182,3.457,3.457,0,0,1-1.7.42,3.722,3.722,0,0,1-1.4-.254,3.05,3.05,0,0,1-1.084-.723,3.317,3.317,0,0,1-.7-1.143,4.532,4.532,0,0,1,0-2.99,3.317,3.317,0,0,1,.7-1.143,3.058,3.058,0,0,1,1.084-.723,3.735,3.735,0,0,1,1.4-.254,3.464,3.464,0,0,1,1.7.42,4.8,4.8,0,0,1,1.387,1.182l2.716-2.462a6.481,6.481,0,0,0-2.521-1.973,8.463,8.463,0,0,0-3.5-.684,8.617,8.617,0,0,0-3.019.518,7.121,7.121,0,0,0-2.413,1.465,6.643,6.643,0,0,0-1.583,2.266,7.615,7.615,0,0,0,0,5.764,6.643,6.643,0,0,0,1.583,2.266,7.113,7.113,0,0,0,2.413,1.466,8.632,8.632,0,0,0,3.019.518,8.36,8.36,0,0,0,3.5-.694" transform="translate(-49.408 -12.956)" fill="#fff"/>
      <path id="Tracciato_11" data-name="Tracciato 11" d="M178.019,42.468h-4.651V37.505h-4.338V51.182h4.338V46.024h4.651v5.158h4.3V37.505h-4.3Z" transform="translate(-59.104 -13.114)" fill="#fff"/>
      <rect id="Rettangolo_17" data-name="Rettangolo 17" width="4.338" height="13.677" transform="translate(128.586 24.391)" fill="#fff"/>
      <path id="Tracciato_12" data-name="Tracciato 12" d="M225.912,37.505h-4.2V44.17l-5.549-6.665h-3.537V51.182h4.22V44.54l5.53,6.642h3.537Z" transform="translate(-74.348 -13.114)" fill="#fff"/>
      <rect id="Rettangolo_18" data-name="Rettangolo 18" width="4.338" height="13.677" transform="translate(156.937 24.391)" fill="#fff"/>
      <path id="Tracciato_13" data-name="Tracciato 13" d="M269.505,37.505h-4.2V44.17l-5.549-6.665h-3.537V51.182h4.22V44.54l5.53,6.642h3.537Z" transform="translate(-89.591 -13.114)" fill="#fff"/>
      <path id="Tracciato_14" data-name="Tracciato 14" d="M293.342,48.681l.977,2.5h4.474l-6-13.677h-4.26l-6,13.677h4.4l.976-2.5Zm-4.21-3.126,1.494-3.828,1.5,3.828Z" transform="translate(-98.794 -13.114)" fill="#fff"/>
      <path id="Tracciato_15" data-name="Tracciato 15" d="M294.549,34.143l-2.579-3.068h-4.025l3.79,3.068Z" transform="translate(-100.684 -10.866)" fill="#fff"/>
      <path id="Tracciato_16" data-name="Tracciato 16" d="M126.2,80.866l-.849-.269a6.485,6.485,0,0,1-.7,2.007l-2.858-2.943a11.777,11.777,0,0,0,1.145-.74,3.217,3.217,0,0,0,.9-.961,2.125,2.125,0,0,0,.276-1.058,1.978,1.978,0,0,0-.306-1.118,1.953,1.953,0,0,0-.849-.708,3.067,3.067,0,0,0-1.274-.246,3.3,3.3,0,0,0-1.4.276,2.035,2.035,0,0,0-1.238,1.945,2.555,2.555,0,0,0,.12.79,2.71,2.71,0,0,0,.425.782,10.815,10.815,0,0,0,.773.9,10.159,10.159,0,0,0-1.368.917,3.76,3.76,0,0,0-.961,1.1,2.569,2.569,0,0,0-.3,1.23,2.221,2.221,0,0,0,.455,1.386,2.992,2.992,0,0,0,1.245.931,4.57,4.57,0,0,0,1.8.336,4.942,4.942,0,0,0,2.3-.522,4.386,4.386,0,0,0,1.182-.9l1.456,1.5.611-.7-1.489-1.533a6.706,6.706,0,0,0,.908-2.4m-6.169-3.83a1.321,1.321,0,0,1,.432-1.021,1.75,1.75,0,0,1,1.222-.395,1.619,1.619,0,0,1,1.125.358,1.207,1.207,0,0,1,.4.939,1.375,1.375,0,0,1-.224.752,2.866,2.866,0,0,1-.752.73q-.4.286-1.027.651c-.293-.313-.532-.581-.7-.793a2.137,2.137,0,0,1-.373-.626,1.817,1.817,0,0,1-.1-.6m3.129,7.078a3.927,3.927,0,0,1-1.863.432,3.516,3.516,0,0,1-1.319-.231,2.047,2.047,0,0,1-.894-.656,1.6,1.6,0,0,1-.321-.99,1.855,1.855,0,0,1,.224-.9,2.919,2.919,0,0,1,.767-.842,10.078,10.078,0,0,1,1.2-.791l3.146,3.235a3.435,3.435,0,0,1-.939.744" transform="translate(-41.169 -26.166)" fill="#fff"/>
      <path id="Tracciato_17" data-name="Tracciato 17" d="M156,75.371a5.581,5.581,0,0,0-2.28-.425h-3.9V85.377h1.1V82.084h2.8a5.493,5.493,0,0,0,2.28-.432,3.331,3.331,0,0,0,1.468-1.229,3.429,3.429,0,0,0,.514-1.9,3.486,3.486,0,0,0-.514-1.93A3.284,3.284,0,0,0,156,75.371m.067,5.067a3.626,3.626,0,0,1-2.377.678H150.92V75.9h2.772a3.6,3.6,0,0,1,2.377.686,2.4,2.4,0,0,1,.812,1.937,2.358,2.358,0,0,1-.812,1.915" transform="translate(-52.386 -26.206)" fill="#fff"/>
      <path id="Tracciato_18" data-name="Tracciato 18" d="M173.1,74.946l-4.768,10.431h1.147l1.247-2.787h5.821l1.247,2.787h1.162l-4.768-10.431Zm-1.974,6.75,2.51-5.61,2.511,5.61Z" transform="translate(-58.86 -26.206)" fill="#fff"/>
      <path id="Tracciato_19" data-name="Tracciato 19" d="M198.14,81.643a3.283,3.283,0,0,0,1.468-1.221,3.429,3.429,0,0,0,.514-1.9,3.488,3.488,0,0,0-.514-1.93,3.287,3.287,0,0,0-1.468-1.221,5.57,5.57,0,0,0-2.28-.425h-3.9V85.376h1.1V82.069h2.8a7.132,7.132,0,0,0,.837-.053l2.382,3.361h1.207l-2.553-3.581c.139-.046.277-.094.406-.152m-2.31-.514h-2.772V75.9h2.772a3.6,3.6,0,0,1,2.377.685,2.7,2.7,0,0,1,0,3.86,3.6,3.6,0,0,1-2.377.685" transform="translate(-67.12 -26.206)" fill="#fff"/>
      <path id="Tracciato_20" data-name="Tracciato 20" d="M210.631,75.9H214.3v9.477h1.1V75.9h3.666v-.954h-8.435Z" transform="translate(-73.65 -26.206)" fill="#fff"/>
      <path id="Tracciato_21" data-name="Tracciato 21" d="M238.562,83.406l-6.721-8.46h-.909V85.377h1.1V76.919l6.706,8.458h.909V74.945h-1.088Z" transform="translate(-80.749 -26.206)" fill="#fff"/>
      <path id="Tracciato_22" data-name="Tracciato 22" d="M255.293,80.548h5.395v-.939h-5.395V75.9h6.05v-.954H254.19V85.377h7.376v-.953h-6.274Z" transform="translate(-88.882 -26.206)" fill="#fff"/>
      <path id="Tracciato_23" data-name="Tracciato 23" d="M280.332,81.643a3.283,3.283,0,0,0,1.468-1.221,3.429,3.429,0,0,0,.514-1.9,3.488,3.488,0,0,0-.514-1.93,3.287,3.287,0,0,0-1.468-1.221,5.57,5.57,0,0,0-2.28-.425h-3.9V85.376h1.1V82.069h2.8a7.132,7.132,0,0,0,.837-.053l2.382,3.361h1.207l-2.553-3.581c.139-.046.277-.094.406-.152m-2.31-.514H275.25V75.9h2.772a3.6,3.6,0,0,1,2.377.685,2.7,2.7,0,0,1,0,3.86,3.6,3.6,0,0,1-2.377.685" transform="translate(-95.86 -26.206)" fill="#fff"/>
      <path id="Tracciato_24" data-name="Tracciato 24" d="M300.3,80.433a6.412,6.412,0,0,0-1.252-.5q-.678-.193-1.364-.358a11.367,11.367,0,0,1-1.259-.372,2.333,2.333,0,0,1-.923-.581,1.375,1.375,0,0,1-.351-.984,1.661,1.661,0,0,1,.291-.961,1.963,1.963,0,0,1,.9-.678,4.075,4.075,0,0,1,1.55-.253,5.426,5.426,0,0,1,1.453.209,4.9,4.9,0,0,1,1.424.656l.373-.879a5.026,5.026,0,0,0-1.491-.678,6.346,6.346,0,0,0-1.744-.246,5.186,5.186,0,0,0-2.175.395,2.866,2.866,0,0,0-1.26,1.043,2.612,2.612,0,0,0-.41,1.423,2.352,2.352,0,0,0,.351,1.349,2.61,2.61,0,0,0,.923.827,5.763,5.763,0,0,0,1.26.5q.685.187,1.371.351a10.134,10.134,0,0,1,1.251.38,2.417,2.417,0,0,1,.917.589,1.378,1.378,0,0,1,.35.984,1.579,1.579,0,0,1-.291.923,1.941,1.941,0,0,1-.909.663,4.4,4.4,0,0,1-1.6.246,5.327,5.327,0,0,1-1.959-.365,4.423,4.423,0,0,1-1.483-.9l-.432.849a4.253,4.253,0,0,0,1.647.976,6.574,6.574,0,0,0,2.227.38,5.271,5.271,0,0,0,2.2-.4,2.9,2.9,0,0,0,1.274-1.042,2.552,2.552,0,0,0,.418-1.409,2.291,2.291,0,0,0-.35-1.326,2.579,2.579,0,0,0-.924-.812" transform="translate(-102.734 -26.158)" fill="#fff"/>
    </g>
  </g>
</svg>
