<?xml version="1.0" encoding="UTF-8"?> <svg xmlns="http://www.w3.org/2000/svg" id="Livello_2" data-name="Livello 2" viewBox="0 0 1762.11 340.12"><defs><style> .cls-1 { fill: #fff; } </style></defs><g id="Modalità_Isolamento" data-name="Modalità Isolamento"><g><g><path class="cls-1" d="M762.14,121.27v138.94c0,2.47-2,4.47-4.47,4.47h-16.41c-2.47,0-4.47-2-4.47-4.47v-85.17c0-4.46-5.8-6.17-8.23-2.43l-36.81,56.9c-1.76,2.73-5.75,2.72-7.51,0l-36.61-56.83c-2.42-3.75-8.23-2.04-8.23,2.42v85.12c0,2.47-2,4.47-4.47,4.47h-16.41c-2.47,0-4.47-2-4.47-4.47V121.27c0-2.47,2-4.47,4.47-4.47h20.76c1.52,0,2.94.77,3.76,2.05l41.2,63.96c1.76,2.73,5.75,2.73,7.51,0l41.39-63.97c.82-1.27,2.24-2.04,3.75-2.04h20.77c2.47,0,4.47,2,4.47,4.47Z"></path><path class="cls-1" d="M823.19,146.62v26.97c0,2.47,2,4.47,4.47,4.47h47.18c2.05,0,3.84,1.4,4.34,3.39l4.1,16.41c.71,2.82-1.43,5.56-4.34,5.56h-51.28c-2.47,0-4.47,2-4.47,4.47v26.97c0,2.47,2,4.47,4.47,4.47h65.21c2.47,0,4.47,2,4.47,4.47v16.41c0,2.47-2,4.47-4.47,4.47h-90.56c-2.47,0-4.47-2-4.47-4.47V121.27c0-2.47,2-4.47,4.47-4.47h90.56c2.47,0,4.47,2,4.47,4.47v16.41c0,2.47-2,4.47-4.47,4.47h-65.21c-2.47,0-4.47,2-4.47,4.47Z"></path><path class="cls-1" d="M1023.03,122.61c9.01,3.88,16.86,9.16,23.55,15.85,6.69,6.69,11.97,14.54,15.85,23.56,3.88,9.01,5.81,18.59,5.81,28.73s-1.94,19.72-5.81,28.73c-3.88,9.02-9.16,16.87-15.85,23.56-6.69,6.69-14.54,11.97-23.55,15.85-9.01,3.88-18.59,5.81-28.73,5.81h-19.54c-3.18,0-5.34-3.22-4.14-6.16l6.7-16.41c.69-1.68,2.32-2.78,4.14-2.78h12.84c6.48,0,12.68-1.23,18.59-3.7,5.92-2.46,11.2-5.95,15.85-10.46,4.5-4.65,7.99-9.89,10.45-15.74,2.46-5.84,3.7-12.08,3.7-18.7s-1.24-12.68-3.7-18.59c-2.46-5.92-5.95-11.2-10.45-15.84-4.65-4.51-9.93-7.99-15.85-10.46-5.92-2.46-12.11-3.7-18.59-3.7h-31.44c-2.47,0-4.47,2-4.47,4.47v113.59c0,2.47-2,4.47-4.47,4.47h-16.41c-2.47,0-4.47-2-4.47-4.47V121.27c0-2.47,2-4.47,4.47-4.47h56.79c10.14,0,19.72,1.94,28.73,5.81Z"></path><path class="cls-1" d="M1124.85,264.68h-16.43c-2.47,0-4.48-2-4.48-4.48V121.27c0-2.47,2-4.48,4.48-4.48h16.43c2.47,0,4.48,2,4.48,4.48v138.93c0,2.47-2,4.48-4.48,4.48Z"></path><path class="cls-1" d="M1479.38,264.68h-20.33c-1.36,0-2.58-.79-3.14-2.03l-10.49-23.32-11.41-25.35-26.86-59.4c-1.22-2.7-5.06-2.7-6.28,0l-24.66,54.54c-1.03,2.28.64,4.86,3.14,4.86h36.84c1.36,0,2.58.79,3.14,2.03l8.31,18.46c1.03,2.28-.64,4.86-3.14,4.86h-59.67c-1.36,0-2.58.79-3.14,2.03l-9.58,21.29c-.56,1.24-1.79,2.03-3.14,2.03h-20.33c-2.5,0-4.17-2.58-3.14-4.86l63.65-141c.56-1.23,1.79-2.03,3.14-2.03h23.44c1.35,0,2.58.79,3.14,2.03l63.65,141c1.03,2.28-.64,4.86-3.14,4.86Z"></path><path class="cls-1" d="M1599.35,216.44c3.48-1.88,6.71-4.15,9.7-6.8,3.73-3.31,6.9-7,9.5-11.09,2.61-4.08,4.65-8.56,6.13-13.42,1.48-4.86,2.22-9.96,2.22-15.32,0-7.32-1.41-14.19-4.23-20.6-2.82-6.41-6.62-12.01-11.41-16.8-4.79-4.79-10.39-8.59-16.79-11.41-6.41-2.82-13.28-4.23-20.6-4.23h-52.62c-1.51,0-2.73,1.22-2.73,2.73v142.42c0,1.51,1.22,2.73,2.73,2.73h19.89c1.51,0,2.73-1.22,2.73-2.73v-38.89h24.5c.93,0,1.79.47,2.3,1.25l25.22,39.11c.5.78,1.37,1.25,2.3,1.25h23.71c2.16,0,3.47-2.39,2.3-4.21l-25.89-40.19c-.86-1.34-.35-3.08,1.05-3.84ZM1593.53,189.47c-5.49,5.49-12.04,8.24-19.65,8.24h-30v-52.83c0-1.51,1.22-2.73,2.73-2.73h27.27c7.61,0,14.15,2.74,19.65,8.24,2.54,2.54,4.51,5.49,5.92,8.87,1.41,3.38,2.11,6.9,2.11,10.56s-.71,7.18-2.11,10.56c-1.41,3.38-3.38,6.41-5.92,9.08Z"></path><path class="cls-1" d="M1687.95,146.62v26.97c0,2.47,2,4.47,4.47,4.47h47.18c2.05,0,3.84,1.4,4.34,3.39l4.1,16.41c.71,2.82-1.43,5.56-4.34,5.56h-51.28c-2.47,0-4.47,2-4.47,4.47v26.97c0,2.47,2,4.47,4.47,4.47h65.21c2.47,0,4.47,2,4.47,4.47v16.41c0,2.47-2,4.47-4.47,4.47h-90.56c-2.47,0-4.47-2-4.47-4.47V121.27c0-2.47,2-4.47,4.47-4.47h90.56c2.47,0,4.47,2,4.47,4.47v16.41c0,2.47-2,4.47-4.47,4.47h-65.21c-2.47,0-4.47,2-4.47,4.47Z"></path><path class="cls-1" d="M1290.86,241.99c1.79,1.77,1.75,4.71-.13,6.38-6.26,5.57-13.33,10.05-21.21,13.45-9.32,4.03-19.35,6.04-30.08,6.04s-20.59-2.01-29.98-6.04c-9.4-4.03-17.58-9.54-24.58-16.53-6.99-6.99-12.5-15.18-16.53-24.58-4.03-9.39-6.04-19.39-6.04-29.98s2.01-20.58,6.04-29.98c4.03-9.39,9.54-17.59,16.53-24.58,6.99-6.99,15.18-12.5,24.58-16.52,9.39-4.03,19.39-6.04,29.98-6.04s20.76,2.01,30.08,6.04c7.88,3.4,14.96,7.89,21.23,13.47,1.87,1.67,1.92,4.59.15,6.36l-11.81,11.81c-1.65,1.65-4.27,1.69-6.04.17-4.16-3.58-8.72-6.42-13.69-8.51-6.22-2.61-12.85-3.92-19.92-3.92s-13.49,1.31-19.7,3.92c-6.22,2.61-11.79,6.39-16.74,11.33-4.95,4.95-8.72,10.52-11.33,16.74-2.62,6.22-3.92,12.78-3.92,19.7s1.3,13.52,3.92,19.81c2.61,6.29,6.39,11.9,11.33,16.84,4.94,4.95,10.52,8.69,16.74,11.23,6.22,2.54,12.78,3.81,19.7,3.81s13.7-1.27,19.92-3.81c4.98-2.04,9.55-4.84,13.71-8.42,1.76-1.51,4.36-1.48,6.02.15l11.77,11.64Z"></path></g><g><path class="cls-1" d="M234.77,240.27c-2.23-10.36-2.28-20.99-.29-31.2H95.67L188.83,16.75c.63-1.31-.32-2.83-1.78-2.83h-58.12c-3.57,0-6.83,2.01-8.43,5.21L25.1,209.5.45,258.69c-1.41,2.82.64,6.13,3.79,6.13h145.8v72.87c0,1.34,1.08,2.42,2.42,2.42h55.71c1.34,0,2.42-1.08,2.42-2.42v-72.87h31.85c-3.29-7.89-5.85-16.1-7.67-24.56Z"></path><path class="cls-1" d="M547.02,170.01c0,76.79-52.87,141.69-125.48,162.79.24-.11.47-.22.7-.32,15.81-7.38,30-17.95,42.18-31.39,24.98-27.57,38.73-64.21,38.73-103.15s-13.75-75.58-38.73-103.15c-12.18-13.45-26.37-24.01-42.18-31.39-16.4-7.66-33.82-11.54-51.78-11.54-27.14,0-53.03,8.87-75.19,25.69-2.29,1.74-5.54,1.33-7.32-.93l-26.41-33.72c-1.82-2.32-1.37-5.68.99-7.44C292.37,13.23,329.81,0,370.45,0c97.51,0,176.56,76.12,176.56,170.01Z"></path><g><circle class="cls-1" cx="321.51" cy="119.47" r="31.5" transform="translate(-9.07 28.04) rotate(-4.93)"></circle><path class="cls-1" d="M426.92,164.3c11.79-5.31,17.04-19.17,11.72-30.96-5.31-11.79-19.17-17.04-30.96-11.72-11.79,5.31-17.04,19.17-11.72,30.96,5.31,11.79,19.17,17.04,30.96,11.72Z"></path><path class="cls-1" d="M442.42,176.35c-19.48-1.13-37.07,8.48-47.13,23.66,33.47,34.24,58.32,78.45,59.68,99.5,1.19-1.24,2.37-2.5,3.53-3.78,17.22-19.02,28.81-42.61,33.83-68.31-.88-27.12-22.33-49.52-49.9-51.06Z"></path><path class="cls-1" d="M294.62,161.38c-35.34,4.71-57.05,41.78-49.55,76.68,12.9,60.15,65.77,101.45,124.8,102.05h.01s.14.01.38,0c.56-.01,1.7-.04,3.02-.09,1.38-.06,2.97-.14,4.33-.28.05,0,.1-.01.15-.02,25.24-2.02,49.07-14.35,68.9-32.19-.59-20.61-25.7-65.72-59.72-100.51-27.67-28.31-61.24-49.79-92.32-45.65Z"></path></g><path class="cls-1" d="M155.29,185.1h49.98c2.89,0,5.24,2.35,5.24,5.24v74.48h-60.47v-74.48c0-2.89,2.35-5.24,5.24-5.24Z"></path></g></g></g></svg> 